<svg id="Layer_5" enable-background="new 0 0 64 64" height="512" viewBox="0 0 64 64" width="512" xmlns="http://www.w3.org/2000/svg" xmlns:xlink="http://www.w3.org/1999/xlink"><linearGradient id="SVGID_1_" gradientUnits="userSpaceOnUse" x1="32" x2="32" y1="63" y2="1"><stop offset="0" stop-color="#9f2fff"/><stop offset="1" stop-color="#0bb1d3"/></linearGradient><path d="m8 27h28v-18h-28zm2-4h2v2h-2zm22-4h2v2h-2zm0-2v-2h2v2zm-2 8h-16v-14h16zm-18-8h-2v-2h2zm0 2v2h-2v-2zm20 6v-2h2v2zm2-12h-2v-2h2zm-22-2v2h-2v-2zm26 12h18v-6h-18zm2-4h14v2h-14zm-2-10v6h18v-6zm16 4h-14v-2h14zm-16 14h2v16h14v-16h2v-2h-18zm4 0h2v14h-2zm10 14h-6v-14h6zm-4-2v-2h2v2zm2-4h-2v-2h2zm-37 8h18v-14h-18zm2-4h2v2h-2zm10-2h-2v-2h2zm2-2h2v2h-2zm-4 4h2v2h-2zm-2 2h-2v-2h2zm2-8v-2h2v2zm-2 0h-2v-2h2zm0 2v2h-2v-2zm-4 2h-2v-2h2zm10 4v-2h2v2zm2-8h-2v-2h2zm-12-2v2h-2v-2zm42.425-24.376c.933-.51 1.575-1.488 1.575-2.624 0-1.654-1.346-3-3-3h-52c-1.654 0-3 1.346-3 3 0 1.136.642 2.114 1.575 2.624l-3.532 38.855c-.028.317-.043.636-.043.955 0 5.635 4.438 10.24 10 10.537v6.029h42v-6.029c5.562-.297 10-4.902 10-10.537 0-.319-.015-.638-.043-.957zm-8.425 45.466c-2.507.423-4.486 2.403-4.91 4.91h-7.786c2.835-1.992 4.696-5.28 4.696-9 0-.334-.02-.668-.05-1h8.05zm0 2.052v2.858h-2.858c.364-1.399 1.459-2.494 2.858-2.858zm-38 0c1.399.364 2.494 1.459 2.858 2.858h-2.858zm4.91 2.858c-.423-2.507-2.403-4.486-4.91-4.91v-5.09h8.05c-.03.332-.05.666-.05 1 0 3.72 1.861 7.008 4.695 9zm5.09-9c0-.335.022-.669.059-1h6.205c.266.598.716 1.108 1.314 1.407l1.95.974c.291.146.472.439.472.765 0 .471-.383.854-.854.854h-.292c-.471 0-.854-.383-.854-.854v-1.146h-2v1.146c0 1.274.845 2.343 2 2.709v2.145h2v-2.145c1.155-.366 2-1.435 2-2.709 0-1.087-.604-2.066-1.578-2.553l-1.186-.593h8.705c.036.331.059.665.059 1 0 4.962-4.038 9-9 9s-9-4.038-9-9zm-19.905-3 3.455-38h50.9l3.455 38zm2.905-42h52c.551 0 1 .449 1 1s-.449 1-1 1h-52c-.551 0-1-.449-1-1s.449-1 1-1zm-2.971 44h7.971v7.971c-4.271-.281-7.69-3.7-7.971-7.971zm9.971 14v-2h38v2zm40-6.029v-7.971h7.971c-.281 4.271-3.7 7.69-7.971 7.971zm-25-39.971h-12v-2h12zm-2 2h2v2h-2zm-10 2v-2h8v2z" fill="url(#SVGID_1_)"/></svg>