<svg id="Layer_5" enable-background="new 0 0 64 64" height="512" viewBox="0 0 64 64" width="512" xmlns="http://www.w3.org/2000/svg" xmlns:xlink="http://www.w3.org/1999/xlink"><linearGradient id="SVGID_1_" gradientUnits="userSpaceOnUse" x1="32" x2="32" y1="63" y2="1"><stop offset="0" stop-color="#9f2fff"/><stop offset="1" stop-color="#0bb1d3"/></linearGradient><path d="m9 14.146v-1.146h2v1.146c0 .471.384.854.854.854h.291c.471 0 .855-.383.855-.854 0-.326-.181-.619-.473-.764l-1.949-.975c-.974-.487-1.578-1.465-1.578-2.553 0-1.274.845-2.343 2-2.709v-2.145h2v2.145c1.155.366 2 1.435 2 2.709v1.146h-2v-1.146c0-.471-.384-.854-.854-.854h-.291c-.471 0-.855.383-.855.854 0 .326.181.619.473.764l1.949.975c.974.487 1.578 1.465 1.578 2.553 0 1.274-.845 2.343-2 2.709v2.145h-2v-2.145c-1.155-.366-2-1.435-2-2.709zm47.077 19.774 6.923-2.307v16.774l-7.023-2.341-.977.28v13.674c0 1.654-1.346 3-3 3h-44c-1.654 0-3-1.346-3-3v-39.521c-2.441-2.02-4-5.071-4-8.479 0-6.065 4.935-11 11-11h40c1.654 0 3 1.346 3 3v17.272c1.742.616 3 2.263 3 4.213 0 1.238-.52 2.433-1.425 3.279l-3.771 3.52zm-4.833-.18-7.805 7.285 2.268 2.268-1.414 1.414-2.707-2.707h-8.586c-1.654 0-3 1.346-3 3 0 .551.448 1 1 1h17.16c.464 0 .926-.065 1.372-.192l5.468-1.562v-8.628zm-16.516 6.26h6.877l10.334-9.646-3.522-3.522zm5.432-8h-1.879c-1.226 0-2.405.449-3.322 1.263l-6.419 5.706c-.343.305-.54.743-.54 1.202 0 .748.465 1.407 1.145 1.684.633-.775 1.485-1.35 2.47-1.636zm-5.778 16h-3.382c-1.223 0-2.273-.738-2.74-1.79l-.833.803 3.646 3.646zm-5.161 3.635-2.855-2.855-1.317 3.292c-.032.08-.049.165-.049.251 0 .46.508.799.927.629zm3.024-18.635h-5.245v4h.745zm-7.245 0h-6v4h6zm-8 0h-6v4h6zm-6 24h6v-18h-6zm8 0h6v-2.097c-1.147-.302-2-1.339-2-2.58 0-.341.064-.675.191-.993l1.96-4.9 2.953-2.848c-1.265-.642-2.104-1.951-2.104-3.411 0-.405.087-.796.216-1.171h-7.216zm8 0h6v-5.366l-1.629 1.295-4.371 1.748zm8 0h6v-9h-3.429l-2.571 2.044zm8 0h6v-9.059c-.279.034-.558.059-.84.059h-5.16zm10.515-34h-.111c-.646 0-1.257.246-1.723.693l-1.821 1.752 3.543 3.544 1.807-1.687c.502-.469.79-1.131.79-1.817 0-1.37-1.115-2.485-2.485-2.485zm-41.515-2c4.963 0 9-4.038 9-9s-4.037-9-9-9-9 4.038-9 9 4.037 9 9 9zm41 25.897-2 .571v11.532h-8-2-32v-28h25.677c1.082-.65 2.325-1 3.604-1h3.958l8.055-7.749c.741-.712 1.693-1.122 2.705-1.213v-17.038c0-.551-.448-1-1-1h-33.694c2.834 1.992 4.695 5.28 4.695 9 0 6.065-4.935 11-11 11-1.801 0-3.498-.444-5-1.214v38.214c0 .551.448 1 1 1h44c.552 0 1-.449 1-1zm4-2.618 4 1.333v-11.225l-4 1.333zm-6-31.279h-26v-8h26zm-2-6h-22v4h22zm2 8h-26v2h26zm-4 4h-22v2h22zm2 2h2v-2h-2zm-8 2h-16v2h16zm0 4h-16v2h16z" fill="url(#SVGID_1_)"/></svg>