<svg id="Layer_5" enable-background="new 0 0 64 64" height="512" viewBox="0 0 64 64" width="512" xmlns="http://www.w3.org/2000/svg" xmlns:xlink="http://www.w3.org/1999/xlink"><linearGradient id="SVGID_1_" gradientUnits="userSpaceOnUse" x1="32" x2="32" y1="63" y2="1"><stop offset="0" stop-color="#9f2fff"/><stop offset="1" stop-color="#0bb1d3"/></linearGradient><path d="m48 29c-1.654 0-3 1.346-3 3s1.346 3 3 3 3-1.346 3-3-1.346-3-3-3zm0 4c-.552 0-1-.449-1-1s.448-1 1-1 1 .449 1 1-.448 1-1 1zm-32-4c-1.654 0-3 1.346-3 3s1.346 3 3 3 3-1.346 3-3-1.346-3-3-3zm0 4c-.552 0-1-.449-1-1s.448-1 1-1 1 .449 1 1-.448 1-1 1zm38.705 1h3.6c2.59 0 4.695-2.106 4.695-4.694v-8.306c0-2.757-2.243-5-5-5h-7.231l-1.823-6.834c-1.282-4.808-5.652-8.166-10.629-8.166h-14.634c-4.977 0-9.347 3.358-10.628 8.166l-1.824 6.834h-3.842c-2.454 0-4.528 1.757-4.932 4.178l-1.394 8.357c-.042.255-.063.512-.063.771 0 2.588 2.105 4.694 4.694 4.694h3.6c.344 1.152.977 2.18 1.816 3h-7.11c-1.654 0-3 1.346-3 3v2c0 .771.301 1.468.78 2-.479.532-.78 1.229-.78 2v2c0 .771.301 1.468.78 2-.479.532-.78 1.229-.78 2v2c0 .771.301 1.468.78 2-.479.532-.78 1.229-.78 2v2c0 1.654 1.346 3 3 3h16c.771 0 1.468-.301 2-.78.532.48 1.229.78 2 .78h16c.771 0 1.468-.301 2-.78.532.48 1.229.78 2 .78h16c1.654 0 3-1.346 3-3v-2c0-.771-.301-1.468-.78-2 .48-.532.78-1.229.78-2v-2c0-.771-.301-1.468-.78-2 .48-.532.78-1.229.78-2v-2c0-.771-.301-1.468-.78-2 .48-.532.78-1.229.78-2v-2c0-1.654-1.346-3-3-3h-7.111c.839-.82 1.472-1.848 1.816-3zm3.601-2h-3.306c0-.695-.105-1.366-.295-2h6.193c-.309 1.148-1.349 2-2.592 2zm2.694-8h-4c-.552 0-1-.449-1-1s.448-1 1-1h4zm-53.611-6h5.38l2.218-8.319c1.048-3.934 4.624-6.681 8.696-6.681h14.635c4.071 0 7.647 2.747 8.696 6.681l2.217 8.319h8.769c1.302 0 2.402.839 2.816 2h-3.816c-1.654 0-3 1.346-3 3s1.346 3 3 3h4v2h-7.264c-1.267-1.811-3.364-3-5.736-3-.818 0-1.601.148-2.331.408l1.315-7.229.002-.179h.014v-3c0-.952-.454-1.791-1.147-2.341l-.682-2.5c-.828-3.038-3.606-5.159-6.754-5.159h-14.834c-3.148 0-5.926 2.121-6.754 5.158l-1.852 6.79 1.345 8.068c-.107-.005-.213-.016-.322-.016-2.372 0-4.47 1.189-5.736 3h-7.084l.333-2h3.487c1.654 0 3-1.346 3-3s-1.346-3-3-3h-2.439c.416-1.184 1.533-2 2.828-2zm39.611 29v-2h2v2h2v-2h2v2h2v-2h2v2h2v-2h1c.552 0 1 .449 1 1v2c0 .551-.448 1-1 1h-16c-.552 0-1-.449-1-1v-2c0-.551.448-1 1-1h1v2zm14 5v2c0 .551-.448 1-1 1h-16c-.552 0-1-.449-1-1v-2c0-.551.448-1 1-1h1v2h2v-2h2v2h2v-2h2v2h2v-2h2v2h2v-2h1c.552 0 1 .449 1 1zm-37 3c-.552 0-1-.449-1-1v-2c0-.551.448-1 1-1h1v2h2v-2h2v2h2v-2h2v2h2v-2h2v2h2v-2h1c.552 0 1 .449 1 1v2c0 .551-.448 1-1 1zm-20 0c-.552 0-1-.449-1-1v-2c0-.551.448-1 1-1h1v2h2v-2h2v2h2v-2h2v2h2v-2h2v2h2v-2h1c.552 0 1 .449 1 1v2c0 .551-.448 1-1 1zm-1-7v-2c0-.551.448-1 1-1h1v2h2v-2h2v2h2v-2h2v2h2v-2h2v2h2v-2h1c.552 0 1 .449 1 1v2c0 .551-.448 1-1 1h-16c-.552 0-1-.449-1-1zm24-1v-2h2v2h2v-2h2v2h2v-2h2v2h2v-2h1c.552 0 1 .449 1 1v2c0 .551-.448 1-1 1h-16c-.552 0-1-.449-1-1v-2c0-.551.448-1 1-1h1v2zm14.319-3.681c-.4-.198-.844-.319-1.319-.319h-16c-.475 0-.919.121-1.319.319.198-.4.319-.844.319-1.319v-2c0-1.388-.952-2.547-2.233-2.888.898-.838 1.578-1.905 1.939-3.112h18.59c.361 1.207 1.041 2.274 1.939 3.112-1.283.341-2.235 1.5-2.235 2.888v2c0 .475.121.919.319 1.319zm.681-27.319c-.552 0-1-.449-1-1s.448-1 1-1h2c.552 0 1 .449 1 1v1zm0-4c-1.654 0-3 1.346-3 3 0 .352.072.686.184 1h-7.184v-9h6.417c2.249 0 4.232 1.515 4.824 3.685l.359 1.315zm-12 4h-12.691l1.45-5.315c.592-2.17 2.575-3.685 4.824-3.685h6.417zm-11.58 9.44-.573-3.44h4.153v-2h-4.486l-.333-2h12.819v10h-8.264c-.812-1.161-1.967-2.06-3.316-2.56zm22.58 6.56h-18c0-.695-.105-1.366-.295-2h18.59c-.19.634-.295 1.305-.295 2zm1.264-4h-10.264v-6h4v-2h-4v-2h10 2.984l-1.589 8.742c-.426.373-.806.794-1.131 1.258zm-35.264-6c.552 0 1 .449 1 1s-.448 1-1 1h-3.153l.334-2zm-1.306 10c-1.244 0-2.284-.852-2.592-2h6.193c-.19.634-.295 1.305-.295 2zm5.306 0c0-2.757 2.243-5 5-5s5 2.243 5 5-2.243 5-5 5-5-2.243-5-5zm-8 8c0-.551.448-1 1-1h1v2h2v-2h2v2h2v-2h2v2h2v-2h2v2h2v-2h1c.552 0 1 .449 1 1v2c0 .551-.448 1-1 1h-16c-.552 0-1-.449-1-1zm17 21h-16c-.552 0-1-.449-1-1v-2c0-.551.448-1 1-1h1v2h2v-2h2v2h2v-2h2v2h2v-2h2v2h2v-2h1c.552 0 1 .449 1 1v2c0 .551-.448 1-1 1zm20 0h-16c-.552 0-1-.449-1-1v-2c0-.551.448-1 1-1h1v2h2v-2h2v2h2v-2h2v2h2v-2h2v2h2v-2h1c.552 0 1 .449 1 1v2c0 .551-.448 1-1 1zm21-1c0 .551-.448 1-1 1h-16c-.552 0-1-.449-1-1v-2c0-.551.448-1 1-1h1v2h2v-2h2v2h2v-2h2v2h2v-2h2v2h2v-2h1c.552 0 1 .449 1 1zm0-20v2c0 .551-.448 1-1 1h-16c-.552 0-1-.449-1-1v-2c0-.551.448-1 1-1h1v2h2v-2h2v2h2v-2h2v2h2v-2h2v2h2v-2h1c.552 0 1 .449 1 1zm-18-8c0-2.757 2.243-5 5-5s5 2.243 5 5-2.243 5-5 5-5-2.243-5-5z" fill="url(#SVGID_1_)"/></svg>