<svg id="Layer_5" enable-background="new 0 0 64 64" height="512" viewBox="0 0 64 64" width="512" xmlns="http://www.w3.org/2000/svg" xmlns:xlink="http://www.w3.org/1999/xlink"><linearGradient id="SVGID_1_" gradientUnits="userSpaceOnUse" x1="32" x2="32" y1="63" y2="1"><stop offset="0" stop-color="#9f2fff"/><stop offset="1" stop-color="#0bb1d3"/></linearGradient><path d="m29 32.146v-1.146h2v1.146c0 .471.383.854.854.854h.292c.471 0 .854-.383.854-.854 0-.326-.181-.619-.473-.765l-1.95-.974c-.973-.487-1.577-1.466-1.577-2.553 0-1.274.845-2.343 2-2.709v-2.145h2v2.145c1.155.366 2 1.435 2 2.709v1.146h-2v-1.146c0-.471-.383-.854-.854-.854h-.292c-.471 0-.854.383-.854.854 0 .326.181.619.473.765l1.95.974c.973.487 1.577 1.466 1.577 2.553 0 1.274-.845 2.343-2 2.709v2.145h-2v-2.145c-1.155-.366-2-1.435-2-2.709zm-26 28.854h-2v2h2zm58 2h2v-2h-2zm-3-44h5v22h-2.319l-1.387 8.318c-.216 1.297-.573 2.573-1.061 3.792l-1.233 3.083v4.807h2v2h-54v-2h2v-4.807l-1.233-3.083c-.487-1.219-.844-2.495-1.061-3.792l-1.387-8.318h-2.319v-22h5v-2h-3.618l4.276-8.553c.446-.892 1.343-1.447 2.342-1.447s1.896.555 2.342 1.448l4.276 8.552h-3.618v2h15v-4h-1.479c-1.39 0-2.521-1.131-2.521-2.521 0-.52.158-1.02.456-1.445l6.152-8.788c.545-.78 1.44-1.246 2.392-1.246s1.847.466 2.393 1.246l6.152 8.788c.297.426.455.926.455 1.445 0 1.39-1.131 2.521-2.521 2.521h-1.479v4h15v-2h-3.618l4.276-8.553c.446-.892 1.343-1.447 2.342-1.447s1.896.555 2.342 1.448l4.276 8.552h-3.618zm-4-4v4h2v-4h2.382l-2.829-5.658c-.211-.422-.895-.421-1.105 0l-2.83 5.658zm.069 24c.453-3.612 3.319-6.477 6.931-6.931v-4.139c-3.612-.453-6.477-3.319-6.931-6.931h-15.764c2.834 1.993 4.695 5.281 4.695 9.001s-1.861 7.008-4.695 9h3.308l.224-2.913c.132-1.731 1.597-3.087 3.333-3.087 1.537 0 2.871 1.042 3.244 2.533l.75 2.997c.039.158.089.313.131.47zm-4.16 2c.417 1.205.903 2.387 1.473 3.528.145.291.438.472.764.472.471 0 .854-.383.854-.854v-3.146zm-8.909 6.665c0-.469.018-.937.054-1.404l.404-5.261h-18.916l.405 5.26c.035.468.053.936.053 1.405 0 2.341-.441 4.629-1.311 6.803l-.689 1.725v4.807h22v-4.807l-.69-1.726c-.869-2.173-1.31-4.461-1.31-6.802zm-30-3.519c0 .471.383.854.854.854.326 0 .619-.181.765-.473.57-1.14 1.055-2.322 1.472-3.527h-3.091zm7.83-11.146c1.737 0 3.201 1.356 3.334 3.087l.224 2.913h3.308c-2.835-1.992-4.696-5.28-4.696-9s1.861-7.008 4.695-9h-15.764c-.454 3.612-3.319 6.477-6.931 6.931v4.139c3.612.453 6.477 3.318 6.931 6.93h4.775c.042-.157.092-.312.131-.47l.75-2.998c.371-1.49 1.705-2.532 3.243-2.532zm4.17-3c0 4.962 4.038 9 9 9s9-4.038 9-9-4.038-9-9-9-9 4.038-9 9zm6-17v6h6v-6h3.479c.288 0 .521-.233.521-.521 0-.107-.033-.21-.094-.299l-6.152-8.788c-.344-.491-1.164-.491-1.508 0l-6.152 8.788c-.061.089-.094.192-.094.299 0 .288.233.521.521.521zm-21 2v4h2v-4h2.382l-2.829-5.658c-.211-.422-.895-.421-1.105 0l-2.83 5.658zm-5 6v4.91c2.507-.423 4.486-2.403 4.91-4.91zm0 18h4.91c-.424-2.507-2.403-4.486-4.91-4.91zm3.679 9.989c.193 1.156.511 2.292.945 3.378l1.053 2.633h10.646l.51-1.275c.774-1.936 1.167-3.975 1.167-6.06 0-.418-.016-.835-.048-1.252l-.783-10.173c-.053-.695-.642-1.24-1.339-1.24-.618 0-1.153.418-1.303 1.018l-.75 2.998c-.553 2.21-1.35 4.366-2.37 6.407-.487.973-1.466 1.577-2.553 1.577-1.574 0-2.854-1.28-2.854-2.854v-3.146h-3.653zm2.321 12.011h10v-4h-10zm46 0v-4h-10v4zm3.653-20h-3.653v3.146c0 1.574-1.28 2.854-2.854 2.854-1.087 0-2.066-.604-2.553-1.577-1.021-2.042-1.817-4.197-2.37-6.407l-.75-2.998c-.149-.6-.685-1.018-1.303-1.018-.698 0-1.287.545-1.34 1.24l-.783 10.173c-.031.417-.047.834-.047 1.252 0 2.085.393 4.124 1.167 6.06l.51 1.275h10.646l1.053-2.633c.435-1.086.752-2.222.945-3.378zm2.347-2v-4.91c-2.507.423-4.486 2.403-4.91 4.91zm0-18h-4.91c.423 2.507 2.403 4.486 4.91 4.91z" fill="url(#SVGID_1_)"/></svg>