<svg id="Layer_5" enable-background="new 0 0 64 64" height="512" viewBox="0 0 64 64" width="512" xmlns="http://www.w3.org/2000/svg" xmlns:xlink="http://www.w3.org/1999/xlink"><linearGradient id="SVGID_1_" gradientUnits="userSpaceOnUse" x1="32" x2="32" y1="63" y2="1"><stop offset="0" stop-color="#9f2fff"/><stop offset="1" stop-color="#0bb1d3"/></linearGradient><path d="m58 33h-7v-1c0-.395-.081-.77-.22-1.116 1.275-.346 2.22-1.501 2.22-2.884v-2c0-1.383-.945-2.539-2.22-2.884.139-.346.22-.721.22-1.116v-2c0-1.654-1.346-3-3-3h-16c-1.654 0-3 1.346-3 3v2c0 1.383.945 2.539 2.22 2.884-.139.346-.22.721-.22 1.116v2c0 .395.081.77.22 1.116-1.275.345-2.22 1.501-2.22 2.884v2c0 1.383.945 2.539 2.22 2.884-.139.346-.22.721-.22 1.116v2c0 .352.072.686.184 1h-6.184v2.184c-.314-.112-.648-.184-1-.184h-1.184c.112-.314.184-.648.184-1v-2c0-.352-.072-.686-.184-1h1.184c1.654 0 3-1.346 3-3v-2c0-1.654-1.346-3-3-3h-1.184c.112-.314.184-.648.184-1v-2c0-.352-.072-.686-.184-1h1.184c1.654 0 3-1.346 3-3v-2c0-1.654-1.346-3-3-3h-1.184c.112-.314.184-.648.184-1v-2c0-.352-.072-.686-.184-1h1.184c1.654 0 3-1.346 3-3v-2c0-1.654-1.346-3-3-3h-1.184c.112-.314.184-.648.184-1v-2c0-1.654-1.346-3-3-3h-16c-1.654 0-3 1.346-3 3v2c0 1.654 1.346 3 3 3h1.184c-.112.314-.184.648-.184 1v2c0 .352.072.686.184 1h-1.184c-1.654 0-3 1.346-3 3v2c0 1.654 1.346 3 3 3h1.184c-.112.314-.184.648-.184 1v2c0 .352.072.686.184 1h-1.184c-1.654 0-3 1.346-3 3v2c0 1.654 1.346 3 3 3h1.184c-.112.314-.184.648-.184 1v2c0 .352.072.686.184 1h-1.184c-1.654 0-3 1.346-3 3v2c0 1.654 1.346 3 3 3h1.184c-.112.314-.184.648-.184 1v2c0 .352.072.686.184 1h-1.184c-1.654 0-3 1.346-3 3v2c0 1.654 1.346 3 3 3h1.184c-.112.314-.184.648-.184 1v2c0 1.654 1.346 3 3 3h16c.352 0 .686-.072 1-.184v.184h33c2.757 0 5-2.243 5-5v-20c0-2.757-2.243-5-5-5zm-7-5c0 .551-.449 1-1 1h-2-14c-.551 0-1-.449-1-1v-2c0-.551.449-1 1-1h1v2h2v-2h2v2h2v-2h2v2h2v-2h2v2h2v-2h1c.551 0 1 .449 1 1zm-20-8c0-.551.449-1 1-1h1v2h2v-2h2v2h2v-2h2v2h2v-2h2v2h2v-2h1c.551 0 1 .449 1 1v2c0 .551-.449 1-1 1h-14-2c-.551 0-1-.449-1-1zm0 12c0-.551.449-1 1-1h1v2h2v-2h2v2h2v-2h2v2h2v-2h2v2h2v-2h1c.551 0 1 .449 1 1v2c0 .551-.449 1-1 1h-14-2c-.551 0-1-.449-1-1zm2 8v-2c0-.551.449-1 1-1h1v2h2v-2h2v2h2v-2h2v2h2v-2h2v2h2v-2h1c.551 0 1 .449 1 1v2c0 .551-.449 1-1 1h-16c-.551 0-1-.449-1-1zm-6 3h3.899c-.399 1.956-1.943 3.5-3.899 3.899v-.899zm-4.184 12c.112-.314.184-.648.184-1v-2c0-.352-.072-.686-.184-1h1.184c.352 0 .686-.072 1-.184v4.369c-.314-.113-.648-.185-1-.185zm-19.816-49v-2c0-.551.449-1 1-1h1v2h2v-2h2v2h2v-2h2v2h2v-2h2v2h2v-2h1c.551 0 1 .449 1 1v2c0 .551-.449 1-1 1h-12-4c-.551 0-1-.449-1-1zm4 6v-2c0-.551.449-1 1-1h1v2h2v-2h2v2h2v-2h2v2h2v-2h1 1v2h2v-2h1c.551 0 1 .449 1 1v2c0 .551-.449 1-1 1h-4-12c-.551 0-1-.449-1-1zm-4 6v-2c0-.551.449-1 1-1h1v2h2v-2h1 1v2h2v-2h2v2h2v-2h2v2h2v-2h1c.551 0 1 .449 1 1v2c0 .551-.449 1-1 1h-12-4c-.551 0-1-.449-1-1zm4 6v-2c0-.551.449-1 1-1h1v2h2v-2h2v2h2v-2h2v2h2v-2h1 1v2h2v-2h1c.551 0 1 .449 1 1v2c0 .551-.449 1-1 1h-4-12c-.551 0-1-.449-1-1zm-4 6v-2c0-.551.449-1 1-1h1v2h2v-2h1 1v2h2v-2h2v2h2v-2h2v2h2v-2h1c.551 0 1 .449 1 1v2c0 .551-.449 1-1 1h-12-4c-.551 0-1-.449-1-1zm4 6v-2c0-.551.449-1 1-1h1v2h2v-2h2v2h2v-2h2v2h2v-2h1 1v2h2v-2h1c.551 0 1 .449 1 1v2c0 .551-.449 1-1 1h-4-12c-.551 0-1-.449-1-1zm-4 6v-2c0-.551.449-1 1-1h1v2h2v-2h1 1v2h2v-2h2v2h2v-2h2v2h2v-2h1c.551 0 1 .449 1 1v2c0 .551-.449 1-1 1h-12-4c-.551 0-1-.449-1-1zm4 6v-2c0-.551.449-1 1-1h1v2h2v-2h2v2h2v-2h2v2h2v-2h1 1v2h2v-2h1c.551 0 1 .449 1 1v2c0 .551-.449 1-1 1h-4-12c-.551 0-1-.449-1-1zm-4 6v-2c0-.551.449-1 1-1h1v2h2v-2h1 1v2h2v-2h2v2h2v-2h2v2h2v-2h1c.551 0 1 .449 1 1v2c0 .551-.449 1-1 1h-12-4c-.551 0-1-.449-1-1zm21 7h-16c-.551 0-1-.449-1-1v-2c0-.551.449-1 1-1h1v2h2v-2h2v2h2v-2h2v2h2v-2h1 1v2h2v-2h1c.551 0 1 .449 1 1v2c0 .551-.449 1-1 1zm3-1v-2-.899c1.956.399 3.5 1.943 3.899 3.899h-3.899zm5.92 1c-.441-3.059-2.861-5.48-5.92-5.92v-6.16c3.059-.441 5.48-2.861 5.92-5.92h1.08 16 1.695c-2.834 1.992-4.695 5.28-4.695 9s1.861 7.008 4.695 9zm28.08-3c0 1.654-1.346 3-3 3-4.962 0-9-4.038-9-9s4.038-9 9-9c1.125 0 2.164-.374 3-1.002zm-3-17h-5.184c.112-.314.184-.648.184-1v-2c0-1.383-.945-2.539-2.22-2.884.015-.037.022-.078.036-.116h7.184c1.654 0 3 1.346 3 3s-1.346 3-3 3zm-12-37v2h-2v-2zm-2 4h2v2h-2zm2 0v-2h2v2zm-2-2v2h-2v-2zm14 4v2h-2v-2zm-2 4h2v2h-2zm2 0v-2h2v2zm-2-2v2h-2v-2zm3 13h-2v-2h2zm-2 4v-2h2v2zm2-2v-2h2v2zm-2-2v2h-2v-2zm-24-18v2h-2v-2zm-2 4h2v2h-2zm2 0v-2h2v2zm-2-2v2h-2v-2z" fill="url(#SVGID_1_)"/></svg>