<svg id="Layer_5" enable-background="new 0 0 64 64" height="512" viewBox="0 0 64 64" width="512" xmlns="http://www.w3.org/2000/svg" xmlns:xlink="http://www.w3.org/1999/xlink"><linearGradient id="SVGID_1_" gradientUnits="userSpaceOnUse" x1="32" x2="32" y1="63" y2="1"><stop offset="0" stop-color="#9f2fff"/><stop offset="1" stop-color="#0bb1d3"/></linearGradient><path d="m5 38.899v19.101c0 2.757 2.243 5 5 5h36c2.757 0 5-2.243 5-5v-19.101c2.279-.465 4-2.484 4-4.899v-3h5c1.654 0 3-1.346 3-3v-12c0-1.654-1.346-3-3-3h-5v-7c0-2.757-2.243-5-5-5h-44c-2.757 0-5 2.243-5 5v28c0 2.414 1.721 4.434 4 4.899zm56-22.899v12c0 .551-.449 1-1 1h-1v-14h1c.551 0 1 .449 1 1zm-4-1v14h-2v-14zm-19.618 24 3 6h-24.764l3-6zm-24 6h-2.382v2h34v-2h-2.382l-3-6h9.382v12h-42v-12h9.382zm32.618 16h-36c-1.654 0-3-1.346-3-3v-5h42v5c0 1.654-1.346 3-3 3zm-43-55c0-1.654 1.346-3 3-3h44c1.654 0 3 1.346 3 3v28c0 1.654-1.346 3-3 3h-44c-1.654 0-3-1.346-3-3zm4 29h42c1.103 0 2-.897 2-2v-26c0-1.103-.897-2-2-2h-42c-1.103 0-2 .897-2 2v26c0 1.103.897 2 2 2zm0-28h42l.001 26h-42.001zm26 24h14v-22h-14zm2-20h10v18h-10zm-26 4h6v-6h-6zm2-4h2v2h-2zm-2 12h6v-6h-6zm2-4h2v2h-2zm-2 12h6v-6h-6zm2-4h2v2h-2zm6-12h6v-6h-6zm2-4h2v2h-2zm-2 12h6v-6h-6zm2-4h2v2h-2zm-2 12h6v-6h-6zm2-4h2v2h-2zm6-12h6v-6h-6zm2-4h2v2h-2zm-2 12h6v-6h-6zm2-4h2v2h-2zm-2 12h6v-6h-6zm2-4h2v2h-2zm17 27c-1.654 0-3 1.346-3 3s1.346 3 3 3 3-1.346 3-3-1.346-3-3-3zm0 4c-.551 0-1-.449-1-1s.449-1 1-1 1 .449 1 1-.449 1-1 1zm-35-3h2v4h-2zm4 0h2v4h-2z" fill="url(#SVGID_1_)"/></svg>