<svg id="Layer_5" enable-background="new 0 0 64 64" height="512" viewBox="0 0 64 64" width="512" xmlns="http://www.w3.org/2000/svg" xmlns:xlink="http://www.w3.org/1999/xlink"><linearGradient id="SVGID_1_" gradientUnits="userSpaceOnUse" x1="32" x2="32" y1="63" y2="1"><stop offset="0" stop-color="#9f2fff"/><stop offset="1" stop-color="#0bb1d3"/></linearGradient><path d="m31 42v-24c0-1.654-1.346-3-3-3h-18c-1.654 0-3 1.346-3 3v11.586l-2.761 2.76c-2.089 2.089-3.239 4.866-3.239 7.821 0 .606.051 1.218.15 1.818l1.556 9.332c.215 1.293.571 2.569 1.061 3.792l1.233 3.084v4.807h14v-4.807l.69-1.726c.87-2.172 1.31-4.461 1.31-6.802 0-.469-.018-.938-.054-1.405l-.251-3.26h7.305c1.654 0 3-1.346 3-3zm-16-6.443c-.683.449-1.204 1.136-1.413 1.976l-.587 2.345v-22.878h2zm-6 9.259c.314.112.648.184 1 .184h1.325c-.222.516-.456 1.026-.707 1.527-.145.292-.438.473-.764.473-.47 0-.854-.383-.854-.854zm0-26.816c0-.551.448-1 1-1h1v26h-1c-.552 0-1-.449-1-1zm8 43h-10v-2h10zm.833-5.275-.51 1.275h-10.646l-1.053-2.633c-.436-1.09-.754-2.227-.945-3.378l-1.556-9.332c-.082-.491-.123-.992-.123-1.49 0-2.42.942-4.696 2.653-6.407l1.347-1.346v9.586 4.146c0 1.574 1.28 2.854 2.854 2.854 1.087 0 2.065-.604 2.553-1.578 1.02-2.041 1.817-4.196 2.369-6.407l.75-2.998c.151-.599.687-1.017 1.304-1.017.697 0 1.285.545 1.339 1.24l.783 10.174c.032.416.048.834.048 1.251 0 2.086-.393 4.125-1.167 6.06zm2.33-17.638c-.128-1.673-1.503-2.984-3.163-3.07v-18.017h11c.552 0 1 .449 1 1v24c0 .551-.448 1-1 1h-7.459zm.837-13.087h6v-6h-6zm2-4h2v2h-2zm2 14h2v2h-2zm0-4h2v2h-2zm0 8h2v2h-2zm-4-8h2v10h-2zm38-17.899v-12.101h-22v12.101c-2.279.465-4 2.484-4 4.899v40c0 2.757 2.243 5 5 5h20c2.757 0 5-2.243 5-5v-40c0-2.414-1.721-4.434-4-4.899zm-2-10.101v10h-18v-10zm-14 12h10v1c0 .551-.448 1-1 1h-8c-.552 0-1-.449-1-1zm-5 0h3v1c0 1.654 1.346 3 3 3h8c1.654 0 3-1.346 3-3v-1h3c1.654 0 3 1.346 3 3v16.5l-1.199.9c-1.754 1.315-2.801 3.409-2.801 5.6v20h-18v-20c0-2.191-1.047-4.285-2.8-5.6l-1.2-.9v-16.5c0-1.654 1.346-3 3-3zm-3 43v-21c1.252.939 2 2.434 2 4v19.816c-1.161-.414-2-1.514-2-2.816zm24 2.816v-19.816c0-1.565.748-3.06 2-3.999v20.999c0 1.302-.839 2.402-2 2.816zm-20-27.816h18c1.103 0 2-.897 2-2v-8c0-1.103-.897-2-2-2h-18c-1.103 0-2 .897-2 2v8c0 1.103.897 2 2 2zm0-10h18l.001 8h-18.001zm14 22h2v2h-2zm-12 0h2v2h-2zm8 0h2v2h-2zm-4 0h2v2h-2zm4-4h2v2h-2zm-8 0h2v2h-2zm4 0h2v2h-2zm8 0h2v2h-2zm-12 8h2v2h-2zm12 0h2v2h-2zm-4 0h2v2h-2zm-4 0h2v2h-2zm8 4h2v2h-2zm-8 0h2v2h-2zm-4 0h2v2h-2zm8 0h2v2h-2zm6-46h-14v-2h14zm-2 2h2v2h-2zm-2 2h-10v-2h10z" fill="url(#SVGID_1_)"/></svg>