<svg id="Layer_5" enable-background="new 0 0 64 64" height="512" viewBox="0 0 64 64" width="512" xmlns="http://www.w3.org/2000/svg" xmlns:xlink="http://www.w3.org/1999/xlink"><linearGradient id="SVGID_1_" gradientUnits="userSpaceOnUse" x1="32" x2="32" y1="63" y2="1"><stop offset="0" stop-color="#9f2fff"/><stop offset="1" stop-color="#0bb1d3"/></linearGradient><path d="m34 41h-2v-2h2zm4-2h-2v2h2zm12-36h-3.026c.635.838 1.026 1.87 1.026 3 0 2.414-1.721 4.434-4 4.899v.101c0 4.658-2.674 8.696-6.562 10.683l.394 2.487.69.153c10.29 2.282 17.478 11.236 17.478 21.776v16.901h-37v-.009c-2.848-.045-5.514-1.571-6.981-4.017l-.84-1.4c-2.079-3.465-3.179-7.432-3.179-11.475 0-10.54 7.187-19.494 17.478-21.775l.69-.153.395-2.487c-3.889-1.988-6.563-6.025-6.563-10.684v-.101c-2.279-.465-4-2.485-4-4.899 0-1.13.391-2.162 1.026-3h-3.026v-2h36zm-30 5.816v-5.632c-1.161.414-2 1.514-2 2.816s.839 2.402 2 2.816zm17.404 17.309c-1.218 1.8-3.226 2.875-5.404 2.875s-4.187-1.075-5.404-2.875l-.685.152c-9.368 2.076-15.911 10.227-15.911 19.822 0 3.68 1.001 7.292 2.894 10.446l.84 1.401c1.129 1.884 3.197 3.054 5.395 3.054 2.562 0 4.846-1.531 5.819-3.9l2.559-6.228-3.098-1.549-4.535 8.163-1.748-.972.807-1.452-3.847-8.656 1.828-.813 3.235 7.279 2.851-5.131v-1.741c0-.351.062-.687.173-1h-.173c-1.654 0-3-1.346-3-3v-8c0-1.654 1.346-3 3-3h16c1.654 0 3 1.346 3 3v8c0 1.654-1.346 3-3 3h-7.049c-.041.288-.103.567-.211.831l-4.942 12.029c-.511 1.246-1.306 2.305-2.281 3.141h21.483v-18.001h2v18h6v-14.901c0-9.595-6.543-17.746-15.911-19.823zm2.596 7.875c0-.551-.448-1-1-1h-16c-.552 0-1 .449-1 1v1h18zm-18 8c0 .551.448 1 1 1h2.382l.04-.081c.593-1.185 1.783-1.92 3.106-1.92 1.386 0 2.576.823 3.132 2h7.34c.552 0 1-.449 1-1v-5h-18zm3 5.382 3.269 1.634 1.621-3.945c.073-.179.11-.367.11-.559 0-.852-.66-1.512-1.472-1.512-.562 0-1.066.312-1.317.814l-.593 1.186h-.618-.002c-.55.002-.998.45-.998 1zm10.538-24.915c-1.119.345-2.307.533-3.538.533s-2.418-.188-3.537-.533l-.366 2.31.107.164c.838 1.289 2.258 2.059 3.796 2.059s2.958-.77 3.798-2.06l.106-.163zm6.462-11.467v-8h-20v8c0 5.514 4.486 10 10 10s10-4.486 10-10zm4-5c0-1.302-.839-2.402-2-2.816v5.631c1.161-.413 2-1.513 2-2.815zm-10.001 7.877c-.459 1.839-2.103 3.123-3.999 3.123s-3.54-1.284-4-3.125l-.03-.12-1.939.49.03.117c.681 2.731 3.124 4.638 5.939 4.638s5.258-1.907 5.939-4.635l.03-.12-1.939-.49zm-5.999-8.877h-2c0 .551-.448 1-1 1s-1-.449-1-1h-2c0 1.654 1.346 3 3 3s3-1.346 3-3zm7 1c-.552 0-1-.449-1-1h-2c0 1.654 1.346 3 3 3s3-1.346 3-3h-2c0 .551-.448 1-1 1z" fill="url(#SVGID_1_)"/></svg>