<svg id="Layer_5" enable-background="new 0 0 64 64" height="512" viewBox="0 0 64 64" width="512" xmlns="http://www.w3.org/2000/svg" xmlns:xlink="http://www.w3.org/1999/xlink"><linearGradient id="SVGID_1_" gradientUnits="userSpaceOnUse" x1="32" x2="32" y1="63" y2="1"><stop offset="0" stop-color="#9f2fff"/><stop offset="1" stop-color="#0bb1d3"/></linearGradient><path d="m45 18.146v-1.146h2v1.146c0 .471.384.854.854.854h.291c.471 0 .855-.383.855-.854 0-.326-.181-.619-.473-.764l-1.949-.975c-.974-.487-1.578-1.465-1.578-2.553 0-1.274.845-2.343 2-2.709v-2.145h2v2.145c1.155.366 2 1.435 2 2.709v1.146h-2v-1.146c0-.471-.384-.854-.854-.854h-.291c-.471 0-.855.383-.855.854 0 .326.181.619.473.764l1.949.975c.974.487 1.578 1.465 1.578 2.553 0 1.274-.845 2.343-2 2.709v2.145h-2v-2.145c-1.155-.366-2-1.435-2-2.709zm-8-2.146c0-6.065 4.935-11 11-11s11 4.935 11 11-4.935 11-11 11-11-4.935-11-11zm2 0c0 4.962 4.037 9 9 9s9-4.038 9-9-4.037-9-9-9-9 4.038-9 9zm-6 9c-2.206 0-4 1.794-4 4h-2v2h2v2h-2v2h2c0 2.206 1.794 4 4 4s4-1.794 4-4v-1h-2v1c0 1.103-.897 2-2 2s-2-.897-2-2h2v-2h-2v-2h2v-2h-2c0-1.103.897-2 2-2s2 .897 2 2v1h2v-1c0-2.206-1.794-4-4-4zm15 6c-.353 0-.699-.029-1.046-.053.029.363.046.714.046 1.053 0 8.271-6.729 15-15 15-.014 0-.028-.002-.042-.002.027.346.042.677.042 1.002 0 .338-.029.668-.051 1h17.051v-1.479c0-1.39 1.131-2.521 2.521-2.521.519 0 1.019.157 1.444.455l8.789 6.152c.78.546 1.246 1.441 1.246 2.393s-.466 1.847-1.246 2.393l-8.788 6.152c-.427.298-.927.455-1.445.455-1.39 0-2.521-1.131-2.521-2.521v-1.479h-21.836c-2.676 2.474-6.24 4-10.164 4-8.271 0-15-6.729-15-15s6.729-15 15-15c.017 0 .034.002.051.003-.022-.333-.051-.665-.051-1.003 0-8.271 6.729-15 15-15 .339 0 .69.017 1.053.047-.024-.348-.053-.694-.053-1.047 0-.338.029-.668.051-1h-18.051v1.479c0 1.39-1.131 2.521-2.521 2.521-.519 0-1.019-.157-1.444-.455l-8.789-6.152c-.78-.546-1.246-1.441-1.246-2.393s.466-1.847 1.246-2.393l8.788-6.152c.427-.298.927-.455 1.445-.455 1.39 0 2.521 1.131 2.521 2.521v1.479h22.836c2.676-2.474 6.241-4 10.164-4 8.271 0 15 6.729 15 15s-6.729 15-15 15zm-13-15c0 7.168 5.832 13 13 13s13-5.832 13-13-5.832-13-13-13-13 5.832-13 13zm5.449 12.94c-2.227-1.304-4.084-3.162-5.389-5.388-.988-.361-2.015-.552-3.06-.552-4.963 0-9 4.038-9 9s4.037 9 9 9 9-4.038 9-9c0-1.045-.191-2.071-.551-3.06zm-7.147-15.94c.452-2.22 1.409-4.253 2.726-6h-23.028v-3.479c0-.395-.493-.654-.82-.426l-8.787 6.151c-.247.172-.393.454-.393.754s.146.582.393.754l8.788 6.152c.322.226.819-.032.819-.427v-3.479zm-13.037 28.317c-.523-.658-.997-1.356-1.406-2.096-.629-.136-1.254-.221-1.859-.221-4.963 0-9 4.038-9 9s4.037 9 9 9 9-4.038 9-9c0-.817-.12-1.631-.345-2.428-1.491-.7-2.85-1.632-4.025-2.76l-3.349 4.188h1.719v2h-2v2h2v2h-2v2h-2v-2h-2v-2h2v-2h-2v-2h1.719l-3.5-4.375 1.563-1.249 3.218 4.023zm11.433 9.683c-.452 2.22-1.409 4.253-2.726 6h22.028v3.479c0 .394.493.654.82.426l8.787-6.151c.247-.172.393-.454.393-.754s-.146-.582-.393-.754l-8.788-6.152c-.322-.226-.819.032-.819.427v3.479zm-1.767-4.16c-.701-.097-1.387-.239-2.053-.43.078.527.122 1.058.122 1.59 0 6.065-4.935 11-11 11s-11-4.935-11-11 4.935-11 11-11c.295 0 .597.034.897.06-.239-.664-.448-1.341-.592-2.044-.102-.004-.202-.016-.305-.016-7.168 0-13 5.832-13 13s5.832 13 13 13 13-5.832 13-13c0-.364-.027-.752-.069-1.16zm14.981-16.163c-.72-.151-1.414-.367-2.092-.618.116.639.18 1.287.18 1.941 0 6.065-4.935 11-11 11s-11-4.935-11-11 4.935-11 11-11c.654 0 1.302.064 1.941.18-.251-.678-.467-1.372-.618-2.092-.466-.053-.912-.088-1.323-.088-7.168 0-13 5.832-13 13s5.832 13 13 13 13-5.832 13-13c0-.412-.036-.857-.088-1.323zm-19.912-21.677v2h2v-2zm-12 2h2v-2h-2zm8 0h2v-2h-2zm-4 0h2v-2h-2zm34 42h-2v2h2zm-12 2v-2h-2v2zm8-2h-2v2h2zm-4 0h-2v2h2z" fill="url(#SVGID_1_)"/></svg>