<svg id="Layer_5" enable-background="new 0 0 64 64" height="512" viewBox="0 0 64 64" width="512" xmlns="http://www.w3.org/2000/svg" xmlns:xlink="http://www.w3.org/1999/xlink"><linearGradient id="SVGID_1_" gradientUnits="userSpaceOnUse" x1="32" x2="32" y1="63" y2="1"><stop offset="0" stop-color="#9f2fff"/><stop offset="1" stop-color="#0bb1d3"/></linearGradient><path d="m41 45h8v-6h-8zm2-4h4v2h-4zm-12 2h2v2h-2zm-8 0h2v2h-2zm4 0h2v2h-2zm-4-4h10v2h-10zm30 2.051v-13.051c0-1.654-1.346-3-3-3h-12v-10h4v1.479c0 1.39 1.131 2.521 2.521 2.521.52 0 1.02-.158 1.445-.456l8.788-6.152c.78-.545 1.246-1.44 1.246-2.392s-.466-1.847-1.246-2.393l-8.788-6.152c-.426-.297-.926-.455-1.445-.455-1.39 0-2.521 1.131-2.521 2.521v1.479h-30v10h18v5.877c-1.809-1.22-3.937-1.877-6.167-1.877-.606 0-1.218.051-1.818.15l-9.332 1.556c-1.297.216-2.573.573-3.792 1.061l-3.084 1.233h-4.807v14h4.807l1.726.69c2.172.87 4.461 1.31 6.802 1.31.469 0 .938-.018 1.405-.054l3.26-.251v7.305c0 1.654 1.346 3 3 3h19.427c-.276.971-.427 1.973-.427 3 0 6.065 4.935 11 11 11s11-4.935 11-11c0-5.728-4.402-10.442-10-10.949zm-24.557-8.051c-.449-.684-1.136-1.204-1.976-1.414l-2.343-.586h26.876v2zm-9.443-5v1.325c-.516-.222-1.026-.456-1.527-.707-.292-.145-.473-.438-.473-.764 0-.471.383-.854.854-.854h1.33c-.112.314-.184.648-.184 1zm32 0v1h-30v-1c0-.551.449-1 1-1h28c.551 0 1 .449 1 1zm-37-21h30v-3.479c0-.395.495-.652.819-.426l8.788 6.152c.246.171.393.453.393.753s-.147.582-.393.754l-8.788 6.152c-.324.225-.819-.032-.819-.427v-3.479h-30zm22 8v10h-1.586l-2.414-2.414v-7.586zm-31 20h-2v-10h2zm10.586 1.952c-2.493.194-4.988-.189-7.311-1.119l-1.275-.51v-10.646l2.633-1.054c1.086-.434 2.222-.752 3.378-.945l9.332-1.556c2.885-.479 5.833.468 7.897 2.531l1.346 1.347h-9.586-4.146c-1.574 0-2.854 1.28-2.854 2.854 0 1.087.604 2.066 1.578 2.553 2.041 1.02 4.196 1.817 6.407 2.37l2.998.75c.599.149 1.017.685 1.017 1.303 0 .697-.545 1.285-1.24 1.339zm5.414 9.048v-7.459l4.913-.378c1.673-.128 2.984-1.503 3.07-3.163h22.017v11c0 .552-.449 1-1 1h-28c-.551 0-1-.448-1-1zm31 15c-4.962 0-9-4.037-9-9 0-1.035.182-2.04.522-3h5.623c-.086.271-.145.555-.145.854 0 1.087.604 2.065 1.578 2.553l1.95.975c.291.145.472.438.472.764 0 .47-.383.854-.854.854h-.292c-.471 0-.854-.384-.854-.854v-1.146h-2v1.146c0 1.275.845 2.344 2 2.709v2.145h2v-2.145c1.155-.366 2-1.435 2-2.709 0-1.087-.604-2.065-1.578-2.553l-1.95-.975c-.291-.145-.472-.438-.472-.764 0-.47.383-.854.854-.854h.292c.471 0 .854.384.854.854v1.146h2v-1.146c0-1.352-.946-2.48-2.209-2.774.13-.336.209-.698.209-1.08v-2.941c4.493.499 8 4.316 8 8.941 0 4.963-4.038 9-9 9zm-8-50h-2v-2h2zm-14-2h2v2h-2zm8 0h2v2h-2zm-4 0h2v2h-2z" fill="url(#SVGID_1_)"/></svg>