<svg id="Layer_5" enable-background="new 0 0 64 64" height="512" viewBox="0 0 64 64" width="512" xmlns="http://www.w3.org/2000/svg" xmlns:xlink="http://www.w3.org/1999/xlink"><linearGradient id="SVGID_1_" gradientUnits="userSpaceOnUse" x1="32" x2="32" y1="63" y2="1"><stop offset="0" stop-color="#9f2fff"/><stop offset="1" stop-color="#0bb1d3"/></linearGradient><path d="m39 18.146v-1.146h2v1.146c0 .471.383.854.854.854h.292c.471 0 .854-.383.854-.854 0-.326-.181-.619-.473-.765l-1.95-.974c-.973-.487-1.577-1.466-1.577-2.553 0-1.274.845-2.343 2-2.709v-2.145h2v2.145c1.155.366 2 1.435 2 2.709v1.146h-2v-1.146c0-.471-.383-.854-.854-.854h-.292c-.471 0-.854.383-.854.854 0 .326.181.619.473.765l1.95.974c.973.487 1.577 1.466 1.577 2.553 0 1.274-.845 2.343-2 2.709v2.145h-2v-2.145c-1.155-.366-2-1.435-2-2.709zm15.219 19.768 8.781-2.195v22.563l-8.781-2.195-2.019 1.513c-1.203.903-2.695 1.4-4.2 1.4h-4.583c-.772 0-1.545.183-2.236.528l-2.391 1.195c-.363.181-.768.277-1.172.277-.504 0-.97-.15-1.37-.397-.88 1.432-2.448 2.397-4.248 2.397h-26c-2.757 0-5-2.243-5-5v-42c0-2.757 2.243-5 5-5h21.867c2.099-5.921 7.798-10 14.133-10 8.271 0 15 6.729 15 15s-6.729 15-15 15c-1.727 0-3.402-.292-5-.859v5.043c.314-.112.648-.184 1-.184h10c1.505 0 2.997.497 4.2 1.4zm-17.219-21.914v7.477c1.481.994 3.198 1.523 5 1.523 4.962 0 9-4.038 9-9s-4.038-9-9-9c-3.257 0-6.207 1.755-7.798 4.534 1.65.818 2.798 2.503 2.798 4.466zm-6.994-5h1.994c.066 0 .127.017.192.019 1.868-3.679 5.639-6.019 9.808-6.019 6.065 0 11 4.935 11 11s-4.935 11-11 11c-1.764 0-3.462-.414-5-1.202v2.185c1.584.663 3.259 1.017 5 1.017 7.168 0 13-5.832 13-13s-5.832-13-13-13c-5.25 0-9.997 3.232-11.994 8zm4.994 47h.019c.102-1.969.974-3.734 2.326-5h-4.345v4c0 1.103-.897 2-2 2h-4c-1.103 0-2-.897-2-2v-4h-1c-.359 0-.7-.074-1.019-.19.006.063.019.125.019.19v4c0 1.103-.897 2-2 2h-4c-1.103 0-2-.897-2-2v-4c0-1.103.897-2 2-2h4c.065 0 .127.013.19.019-.116-.319-.19-.66-.19-1.019s.074-.7.19-1.019c-.063.006-.125.019-.19.019h-4c-1.103 0-2-.897-2-2v-4c0-1.103.897-2 2-2h4c1.103 0 2 .897 2 2v4c0 .065-.013.127-.019.19.319-.116.66-.19 1.019-.19h1v-4c0-1.103.897-2 2-2h4c1.103 0 2 .897 2 2v3 1h.184c-.112-.314-.184-.648-.184-1 0-1.065.562-1.997 1.401-2.529-.248-.437-.401-.934-.401-1.471 0-1.065.562-1.997 1.401-2.529-.248-.437-.401-.934-.401-1.471v-22c0-1.654-1.346-3-3-3h-26c-1.654 0-3 1.346-3 3v42c0 1.654 1.346 3 3 3h26c1.654 0 3-1.346 3-3zm-4-15h-4v4h4zm-10 0h-4v4h4.001zm0 10h-4v4h4.001zm6 4h4v-4h-4zm26-2.5v-15l-2-1.5c-.859-.645-1.925-1-3-1h-10c-.551 0-1 .448-1 1s.449 1 1 1h2v2h-2-1c-.551 0-1 .448-1 1s.449 1 1 1h3v2h-3-1c-.551 0-1 .448-1 1s.449 1 1 1h4v2h-4-12c-.551 0-1 .448-1 1s.449 1 1 1h18.382 1.576 2.042v2h-2.042-1.576c-2.968 0-5.382 2.414-5.382 5.382 0 .437.502.749.895.553l2.391-1.195c.966-.484 2.049-.74 3.131-.74h4.583c1.075 0 2.141-.355 3-1zm2-.281 6 1.5v-17.438l-6 1.5zm-42-1.219v4c0 1.103-.897 2-2 2h-4c-1.103 0-2-.897-2-2v-4c0-1.103.897-2 2-2h4c1.103 0 2 .897 2 2zm-1.999 4-.001-4h-4v4zm1.999-14v4c0 1.103-.897 2-2 2h-4c-1.103 0-2-.897-2-2v-4c0-1.103.897-2 2-2h4c1.103 0 2 .897 2 2zm-1.999 4-.001-4h-4v4zm1.999-14v4c0 1.103-.897 2-2 2h-4c-1.103 0-2-.897-2-2v-4c0-1.103.897-2 2-2h4c1.103 0 2 .897 2 2zm-1.999 4-.001-4h-4v4zm-6.001-10v-10c0-1.103.897-2 2-2h24c1.103 0 2 .897 2 2v10c0 1.103-.897 2-2 2h-24c-1.103 0-2-.897-2-2zm2 0h24.001l-.001-10h-24zm16 6v4c0 1.103-.897 2-2 2h-4c-1.103 0-2-.897-2-2v-4c0-1.103.897-2 2-2h4c1.103 0 2 .897 2 2zm-1.999 4-.001-4h-4v4zm11.999-4v4c0 1.103-.897 2-2 2h-4c-1.103 0-2-.897-2-2v-4c0-1.103.897-2 2-2h4c1.103 0 2 .897 2 2zm-1.999 4-.001-4h-4v4z" fill="url(#SVGID_1_)"/></svg>