<svg id="Layer_5" enable-background="new 0 0 64 64" height="512" viewBox="0 0 64 64" width="512" xmlns="http://www.w3.org/2000/svg" xmlns:xlink="http://www.w3.org/1999/xlink"><linearGradient id="SVGID_1_" gradientUnits="userSpaceOnUse" x1="32.089" x2="32.089" y1="63" y2="1"><stop offset="0" stop-color="#9f2fff"/><stop offset="1" stop-color="#0bb1d3"/></linearGradient><path d="m24.105 22.553 1.789.895-.105.211c-.722 1.444-2.174 2.341-3.789 2.341s-3.067-.897-3.789-2.342l-.105-.211 1.789-.895.105.212c.381.762 1.147 1.236 2 1.236s1.619-.474 2-1.236zm.895-4.553c0 .552.448 1 1 1s1-.448 1-1-.448-1-1-1-1 .448-1 1zm-7 1c.552 0 1-.448 1-1s-.448-1-1-1-1 .448-1 1 .448 1 1 1zm4-7.618v-.146c0-1.76-.978-3.343-2.553-4.13l-.895 1.789c.893.446 1.448 1.343 1.448 2.341v.146c0 .617-.343 1.171-.895 1.447-.223.112-.473.171-.723.171v2c.559 0 1.118-.132 1.618-.382 1.233-.617 2-1.856 2-3.236zm4 0v-.146c0-1.76-.978-3.343-2.553-4.13l-.895 1.789c.893.446 1.448 1.343 1.448 2.341v.146c0 .617-.343 1.171-.895 1.447-.223.112-.473.171-.723.171v2c.559 0 1.118-.132 1.618-.382 1.233-.617 2-1.856 2-3.236zm30 .618v-1.094c0-1.841-1.284-3.378-3-3.789v-2.117h-2v2.117c-1.716.411-3 1.948-3 3.789 0 1.684 1.073 3.172 2.67 3.705l2.026.676c.78.26 1.303.986 1.303 1.808.001 1.05-.854 1.905-1.905 1.905h-.188c-1.051 0-1.906-.855-1.906-1.906v-1.094h-2v1.094c0 1.841 1.284 3.378 3 3.789v2.117h2v-2.117c1.716-.411 3-1.948 3-3.789 0-1.684-1.073-3.172-2.67-3.705l-2.026-.676c-.781-.259-1.304-.986-1.304-1.807 0-1.051.855-1.906 1.906-1.906h.188c1.051 0 1.906.855 1.906 1.906v1.094zm-3.121 13.293 10.3-1.472-1.472 10.3-2.707-2.707v19.586h-16.059c-.5 4.493-4.317 8-8.941 8h-5v4h-14v-4h-5c-4.962 0-9-4.037-9-9v-3c0-9.368 6.822-17.155 15.754-18.702-1.474-1.062-2.61-2.556-3.229-4.298h-.525c-2.206 0-4-1.794-4-4 0-1.024.398-1.95 1.034-2.658-.665-1.488-1.034-3.104-1.034-4.736 0-6.399 5.207-11.606 11.606-11.606h2.921c3.059 0 5.816 1.655 7.255 4.337l.923.692c2.064 1.547 3.295 4.011 3.295 6.589v1.385c0 1.244-.298 2.463-.836 3.578.516.674.836 1.506.836 2.419 0 2.206-1.794 4-4 4h-.525c-.619 1.742-1.756 3.236-3.229 4.298 4.08.707 7.713 2.71 10.462 5.58l5.292-5.292 7 7 6.586-6.586zm-3.879 12.121-2-2v13.586h2zm2 11.586h2v-13.586l-2 2zm-11.986-13.6c2.489 3.213 3.986 7.231 3.986 11.6v2h2v-15.586l-2-2zm-17.494-5.4h-1.52c-.772 0-1.526.07-2.271.17l.795 3.575zm-.34 11h1.639l-.667-4h-.306zm1.793-7.183-.973-1.216-.973 1.217.591 1.182h.764zm2.504-.072.795-3.575c-.746-.1-1.5-.17-2.272-.17h-1.52zm7.523-13.745c0-1.103-.897-2-2-2v3c0 .338-.022.671-.059 1h.059c1.103 0 2-.897 2-2zm-19.941 2c-.037-.329-.059-.662-.059-1v-3c-1.103 0-2 .897-2 2s.897 2 2 2zm8.941 6c3.86 0 7-3.14 7-7v-7.129c-.284.298-.617.556-1 .748-.5.249-1.059.381-1.618.381v-2c.25 0 .5-.059.724-.171.551-.276.894-.83.894-1.447v-.146c0-.998-.555-1.895-1.447-2.341l.895-1.789c1.381.691 2.302 1.993 2.508 3.49.664.792 1.044 1.771 1.044 2.818v2.586c.548 0 1.071.112 1.547.312.293-.733.453-1.515.453-2.309v-1.385c0-1.953-.933-3.817-2.495-4.989l-1.294-.971-.105-.211c-1.064-2.126-3.201-3.447-5.578-3.447h-2.921c-5.297 0-9.607 4.31-9.607 9.606 0 1.242.254 2.474.721 3.622.404-.137.829-.228 1.279-.228v-.528c0-1.906 1.059-3.62 2.764-4.472l1.789-.895.895 1.789-1.789.895c-1.024.511-1.659 1.539-1.659 2.683v5.528c0 3.86 3.14 7 7 7zm-12 29v-4.142c-1.72-.447-3-1.999-3-3.858v-7h2v7c0 .974.699 1.787 1.622 1.964l1.085-1.085c.566-.566 1.32-.879 2.122-.879h.171c.351 0 .686.065 1 .176v-8.176h4.153l.807-4.843-.31-.619-2.174 2.717-1.711-7.699c-7.327 1.889-12.765 8.534-12.765 16.444v3c0 3.859 3.14 7 7 7zm2 0h5c.551 0 1-.448 1-1v-2c0-.552-.449-1-1-1h-2v-1c0-.552-.449-1-1-1h-.171c-.267 0-.519.104-.708.293l-1.121 1.121zm15 2c-1.654 0-3-1.346-3-3v-2c0-1.654 1.346-3 3-3v-8h-10v8c1.654 0 3 1.346 3 3v2c0 1.654-1.346 3-3 3v2h10zm5-6.586-1.121-1.121c-.189-.189-.441-.293-.708-.293h-.171c-.551 0-1 .448-1 1v1h-2c-.551 0-1 .448-1 1v2c0 .552.449 1 1 1h5zm9-5.414c0-7.91-5.438-14.555-12.766-16.445l-1.711 7.699-2.174-2.717-.31.619.808 4.844h4.153v8.176c.314-.111.649-.176 1-.176h.171c.801 0 1.555.313 2.122.879l1.085 1.085c.923-.177 1.622-.99 1.622-1.964v-7h2v7c0 1.859-1.28 3.411-3 3.858v4.142c3.86 0 7-3.141 7-7zm16 2v-17.586l-2 2v15.586zm3.821-22.821-3.7.528 3.172 3.172zm-13.821 26.821h-2v2h2zm-2 6h2v-2h-2zm16-6h-12v2h12zm-12 6h12v-2h-12z" fill="url(#SVGID_1_)"/></svg>
