<svg id="Layer_5" enable-background="new 0 0 64 64" height="512" viewBox="0 0 64 64" width="512" xmlns="http://www.w3.org/2000/svg" xmlns:xlink="http://www.w3.org/1999/xlink"><linearGradient id="SVGID_1_" gradientUnits="userSpaceOnUse" x1="32" x2="32" y1="63" y2="1"><stop offset="0" stop-color="#9f2fff"/><stop offset="1" stop-color="#0bb1d3"/></linearGradient><path d="m60 19.117v-2.117h-2v2.117c-1.716.411-3 1.948-3 3.789 0 1.684 1.073 3.172 2.671 3.705l2.025.676c.78.26 1.304.986 1.304 1.808 0 1.05-.854 1.905-1.905 1.905h-.189c-1.052 0-1.906-.855-1.906-1.906v-1.094h-2v1.094c0 1.841 1.284 3.378 3 3.789v1.331c-.408-.134-.836-.214-1.277-.214-1.407 0-2.739.745-3.478 1.943l-4.37 7.101c-1.837-5.591-6.318-10.061-11.992-11.828l-.403-2.422c2.423-1.398 4.138-3.887 4.461-6.795h.059c2.206 0 4-1.794 4-4 0-.695-.194-1.339-.507-1.909.33-.901.507-1.844.507-2.814v-.804c0-3.029-1.623-5.763-4.26-7.213-1.449-2.635-4.182-4.259-7.212-4.259h-3.057c-3.029 0-5.763 1.624-7.212 4.259-2.636 1.45-4.259 4.184-4.259 7.213v.804c0 .969.177 1.912.507 2.815-.313.57-.507 1.214-.507 1.909 0 2.206 1.794 4 4 4h.059c.323 2.908 2.038 5.397 4.461 6.795l-.403 2.422c-5.674 1.767-10.155 6.238-11.992 11.828l-3.72-6.045h.595c1.654 0 3-1.346 3-3v-2c0-.771-.301-1.468-.78-2 .48-.532.78-1.229.78-2v-2c0-1.654-1.346-3-3-3h-3v-2h1c2.757 0 5-2.243 5-5v-1h-3c-1.13 0-2.162.391-3 1.026v-.026-3h2c3.309 0 6-2.691 6-6v-2h-4c-3.309 0-6 2.691-6 6v1 .026c-.838-.635-1.87-1.026-3-1.026h-3v1c0 2.757 2.243 5 5 5h1v3 1 2h-3c-1.654 0-3 1.346-3 3v2c0 .771.301 1.468.78 2-.479.532-.78 1.229-.78 2v2c0 .771.301 1.468.78 2-.479.532-.78 1.229-.78 2 0 1.654 1.346 3 3 3h2.262l2.568 8.35c.857 2.781 3.387 4.65 6.297 4.65 2.496 0 4.766-1.443 5.873-3.64v12.64h22v-12.641c1.107 2.198 3.377 3.641 5.873 3.641 2.91 0 5.44-1.869 6.297-4.65l2.568-8.35h2.262c1.654 0 3-1.346 3-3s-1.346-3-3-3v-2.117c1.716-.411 3-1.948 3-3.789 0-1.684-1.073-3.172-2.671-3.705l-2.025-.676c-.781-.259-1.304-.986-1.304-1.807 0-1.051.854-1.906 1.905-1.906h.189c1.052 0 1.906.855 1.906 1.906v1.094h2v-1.094c0-1.841-1.284-3.379-3-3.789zm-48-2.117h.829c-.413 1.164-1.525 2-2.829 2h-.829c.413-1.164 1.525-2 2.829-2zm1-10h2c0 2.206-1.794 4-4 4h-2c0-2.206 1.794-4 4-4zm-7 8c-1.304 0-2.416-.836-2.829-2h.829c1.304 0 2.416.836 2.829 2zm24.66 21.926-2.857 2.857-.59-6.491c.142-.049.288-.089.432-.135zm1.16 8.074h.36l1.751 8.758-1.931 2.575-1.932-2.575zm.562-2h-.764l-1.401-2.803 1.783-1.783 1.783 1.783zm.958-6.074 3.015-3.768c.144.045.29.085.432.135l-.59 6.491zm7.66-16.926v-4c1.103 0 2 .897 2 2s-.897 2-2 2zm-20-2c0-1.103.897-2 2-2v4c-1.103 0-2-.897-2-2zm2.224-4h-.224c-.682 0-1.316.188-1.878.49-.079-.397-.122-.802-.122-1.214v-.804c0-2.377 1.321-4.515 3.447-5.578l.298-.149.149-.298c1.063-2.126 3.201-3.447 5.578-3.447h3.057c2.377 0 4.515 1.321 5.577 3.447l.149.298.298.149c2.126 1.064 3.447 3.201 3.447 5.578v.804c0 .411-.043.816-.122 1.214-.562-.302-1.196-.49-1.878-.49v-2c0-2.206-1.794-4-4-4s-4 1.794-4 4h2c0-1.103.897-2 2-2s2 .897 2 2-.897 2-2 2h-1.676c-3.352 0-6.315-2.136-7.376-5.316l-1.896.633c.147.442.329.865.532 1.274l-.82.409c-1.25.625-2.147 1.714-2.54 3zm1.776 7v-5.528c0-1.144.636-2.172 1.658-2.683l1.004-.502c1.816 2.298 4.609 3.713 7.662 3.713h1.676c.732 0 1.409-.212 2-.556v5.556c0 3.86-3.141 7-7 7s-7-3.14-7-7zm7 9c.9 0 1.768-.136 2.589-.384l.351 2.107-2.94 3.676-2.94-3.676.351-2.107c.821.248 1.689.384 2.589.384zm-19 4c0 .552-.448 1-1 1h-7-1c-.552 0-1-.448-1-1v-2c0-.551.448-1 1-1h1v2h2v-2h2v2h2v-2h1c.552 0 1 .449 1 1zm-10-8c0-.551.448-1 1-1h1v2h2v-2h2v2h2v-2h1c.552 0 1 .449 1 1v2c0 .551-.448 1-1 1h-8c-.552 0-1-.449-1-1zm1 13c-.552 0-1-.448-1-1s.448-1 1-1h1 4.057l2.222 3.611-2.711 1.084-.83-2.695zm49.258 9.762c-.596 1.936-2.359 3.238-4.385 3.238-1.902 0-3.629-1.196-4.296-2.978l-1.577-4.204v-3.818h-2v20h-18v-20h-2v3.818l-1.577 4.206c-.667 1.78-2.394 2.976-4.296 2.976-2.026 0-3.789-1.302-4.385-3.238l-1.584-5.148 3.185-1.274 3.806 6.184 1.703-1.049-1.282-2.084c1.03-4.909 4.296-9.064 8.71-11.277l.918 10.102 2.529-2.529 1.226 2.452-2.021 10.102 4.068 5.426 4.068-5.425-2.021-10.102 1.226-2.452 2.529 2.529.918-10.102c4.414 2.213 7.68 6.368 8.71 11.277l-1.282 2.084 1.703 1.049 3.806-6.184 3.185 1.274zm7.742-10.762c0 .552-.448 1-1 1h-3.738l-.83 2.696-2.711-1.084 2.227-3.619c.377-.613 1.057-.993 1.775-.993.557 0 1.08.217 1.474.61l.39.39h1.413c.552 0 1 .448 1 1zm-29-12c-1.615 0-3.067-.897-3.789-2.342l-.105-.21 1.789-.895.105.211c.381.762 1.147 1.236 2 1.236s1.619-.474 2-1.236l.105-.211 1.789.895-.105.211c-.722 1.444-2.174 2.341-3.789 2.341zm3-8c0-.552.448-1 1-1s1 .448 1 1-.448 1-1 1-1-.448-1-1zm-7 1c-.552 0-1-.448-1-1s.448-1 1-1 1 .448 1 1-.448 1-1 1z" fill="url(#SVGID_1_)"/></svg>