<svg id="Layer_5" enable-background="new 0 0 64 64" height="512" viewBox="0 0 64 64" width="512" xmlns="http://www.w3.org/2000/svg" xmlns:xlink="http://www.w3.org/1999/xlink"><linearGradient id="SVGID_1_" gradientUnits="userSpaceOnUse" x1="32" x2="32" y1="63" y2=".923"><stop offset="0" stop-color="#9f2fff"/><stop offset="1" stop-color="#0bb1d3"/></linearGradient><path d="m59.095 35.068 1.162-1.627-13.257-9.469-13.257 9.469 1.162 1.627 2.095-1.496v16.208c-.609.549-1 1.337-1 2.22v2c0 .771.301 1.468.78 2-.48.532-.78 1.229-.78 2v2c0 1.654 1.346 3 3 3h16c1.654 0 3-1.346 3-3v-2c0-.771-.301-1.468-.78-2 .48-.532.78-1.229.78-2v-2c0-.883-.391-1.67-1-2.22v-16.208zm-17.095 17.932v-2h2v2h2v-2h2v2h2v-2h2v2h2v-2h1c.552 0 1 .448 1 1v2c0 .552-.448 1-1 1h-16c-.552 0-1-.448-1-1v-2c0-.552.448-1 1-1h1v2zm14 7c0 .552-.448 1-1 1h-16c-.552 0-1-.448-1-1v-2c0-.552.448-1 1-1h1v2h2v-2h2v2h2v-2h2v2h2v-2h2v2h2v-2h1c.552 0 1 .448 1 1zm-1-11h-16v-16.856l8-5.714 8 5.714zm-7-20v2.117c1.716.411 3 1.948 3 3.789v1.094h-2v-1.095c0-1.051-.854-1.905-1.905-1.905h-.189c-1.052 0-1.906.854-1.906 1.905 0 .821.523 1.548 1.304 1.809l2.025.676c1.598.532 2.671 2.021 2.671 3.705 0 1.84-1.284 3.378-3 3.789v2.116h-2v-2.117c-1.716-.411-3-1.948-3-3.789v-1.094h2v1.095c0 1.051.854 1.905 1.905 1.905h.189c1.052 0 1.906-.854 1.906-1.905 0-.821-.523-1.548-1.304-1.809l-2.025-.676c-1.598-.532-2.671-2.021-2.671-3.705 0-1.84 1.284-3.378 3-3.789v-2.116zm-1.293-28h-3.707-6.702c-.969 0-1.927.155-2.846.462l-4.578 1.526-27.874-2.065v16.153l27.701-2.052 3.003 2.252c.52.39 1.083.724 1.675.993l8.997 4.09-10.957 7.826 1.162 1.628 12.404-8.86c.76-.1 1.446-.434 1.968-.945.453-.009.905.119 1.279.386l13.187 9.419 1.162-1.628-8.802-6.287c.501-.134.964-.385 1.341-.761.567-.566.88-1.319.88-2.121v-3.854c.545.528 1.27.838 2.046.838 1.629 0 2.954-1.325 2.954-2.954v-.518c0-.243-.037-.482-.095-.716 1.215-.426 2.095-1.573 2.095-2.933v-.172c0-.671-.222-1.336-.624-1.873-3.68-4.905-9.537-7.834-15.669-7.834zm-18.707 12.071-25 1.852v-11.846l25 1.852zm21.395 7.696c-.44-.314-.936-.533-1.453-.655.032-.189.058-.38.058-.578v-.167c0-1.204-.609-2.303-1.629-2.939l-5.329-3.331c-.652-.408-1.042-1.111-1.042-1.88 0-1.222.994-2.217 2.217-2.217h1.082c1.516 0 3.002.521 4.186 1.468 1.598 1.28 2.515 3.187 2.515 5.234v5.307c0 .07.016.136.021.206zm4.605.25c0 .266-.104.517-.292.705s-.438.291-.704.291c-.548.025-1.004-.45-1.004-1.004v-5.307c0-2.658-1.19-5.134-3.266-6.795-1.537-1.23-3.467-1.907-5.435-1.907h-1.082c-2.325 0-4.217 1.892-4.217 4.217 0 1.463.741 2.8 1.981 3.576l5.33 3.332c.431.268.689.733.689 1.242v.167c0 .808-.657 1.466-1.466 1.466-.211 0-.415-.044-.606-.131l-9.721-4.418c-.46-.209-.898-.469-1.304-.772l-2.903-2.179v-8.78l4.085-1.362c.715-.237 1.459-.358 2.213-.358h4.702c2.569 0 5.074.508 7.395 1.441 1.312.74 2.484 1.731 3.405 2.959 1.419 1.891 2.2 4.235 2.2 6.6zm5-5.971c0 .526-.428.954-.954.954-.319 0-.616-.159-.794-.425l-1.265-1.898c-.045-1.758-.452-3.495-1.181-5.09 1.302 1.253 2.446 2.685 3.377 4.282l.688 1.18c.085.145.13.311.13.48v.517zm2-4.167c0 .579-.47 1.044-1.017 1.105l-.071-.123c-2.053-3.519-5.031-6.328-8.516-8.211 3.703 1.032 7.035 3.258 9.381 6.384.144.193.223.431.223.673zm-57 48.121h8v1c0 1.654 1.346 3 3 3h16c1.654 0 3-1.346 3-3v-2c0-.771-.301-1.468-.78-2 .48-.532.78-1.229.78-2v-2c0-.771-.301-1.468-.78-2 .48-.532.78-1.229.78-2v-2c0-.771-.301-1.468-.78-2 .48-.532.78-1.229.78-2v-2c0-1.654-1.346-3-3-3h-8v-1c0-.771-.301-1.468-.78-2 .48-.532.78-1.229.78-2v-2c0-1.654-1.346-3-3-3h-16c-1.654 0-3 1.346-3 3v2c0 .771.301 1.468.78 2-.479.532-.78 1.229-.78 2v2c0 .771.301 1.468.78 2-.479.532-.78 1.229-.78 2v2c0 .771.301 1.468.78 2-.479.532-.78 1.229-.78 2v2c0 .771.301 1.468.78 2-.479.532-.78 1.229-.78 2v2c0 1.654 1.346 3 3 3zm-1-3v-2c0-.552.448-1 1-1h1v2h2v-2h2v2h2v-2h1v1c0 .771.301 1.468.78 2-.261.289-.463.626-.596 1h-8.184c-.552 0-1-.448-1-1zm0-6v-2c0-.552.448-1 1-1h1v2h2v-2h2v2h2v-2h1v1c0 .771.301 1.468.78 2-.261.289-.463.626-.596 1h-8.184c-.552 0-1-.448-1-1zm0-6v-2c0-.552.448-1 1-1h1v2h2v-2h2v2h2v-2h1v1c0 .771.301 1.468.78 2-.261.289-.463.626-.596 1h-8.184c-.552 0-1-.448-1-1zm0-6v-2c0-.552.448-1 1-1h1v2h2v-2h2v2h2v-2h2v2h2v-2h2v2h-2c-1.302 0-2.402.839-2.816 2h-8.184c-.552 0-1-.448-1-1zm15 9v-2h2v2h2v-2h2v2h2v-2h2v2h2v-2h1c.552 0 1 .448 1 1v2c0 .552-.448 1-1 1h-16c-.552 0-1-.448-1-1v-2c0-.552.448-1 1-1h1v2zm14 5v2c0 .552-.448 1-1 1h-16c-.552 0-1-.448-1-1v-2c0-.552.448-1 1-1h1v2h2v-2h2v2h2v-2h2v2h2v-2h2v2h2v-2h1c.552 0 1 .448 1 1zm0 8c0 .552-.448 1-1 1h-16c-.552 0-1-.448-1-1v-2c0-.552.448-1 1-1h1v2h2v-2h2v2h2v-2h2v2h2v-2h2v2h2v-2h1c.552 0 1 .448 1 1zm0-20v2c0 .552-.448 1-1 1h-16c-.552 0-1-.448-1-1v-2c0-.552.448-1 1-1h1v2h2v-2h2v2h2v-2h2v2h2v-2h2v2h2v-2h1c.552 0 1 .448 1 1zm-13-3v-2h1c.552 0 1 .448 1 1v1zm-16-7c0-.551.448-1 1-1h1v2h2v-2h2v2h2v-2h2v2h2v-2h2v2h2v-2h1c.552 0 1 .449 1 1v2c0 .551-.448 1-1 1h-16c-.552 0-1-.449-1-1z" fill="url(#SVGID_1_)"/></svg>