<svg id="Layer_5" enable-background="new 0 0 64 64" height="512" viewBox="0 0 64 64" width="512" xmlns="http://www.w3.org/2000/svg" xmlns:xlink="http://www.w3.org/1999/xlink"><linearGradient id="SVGID_1_" gradientUnits="userSpaceOnUse" x1="32" x2="32" y1="63" y2="1"><stop offset="0" stop-color="#9f2fff"/><stop offset="1" stop-color="#0bb1d3"/></linearGradient><path d="m15 51c2.206 0 4-1.794 4-4s-1.794-4-4-4-4 1.794-4 4 1.794 4 4 4zm0-6c1.103 0 2 .897 2 2s-.897 2-2 2-2-.897-2-2 .897-2 2-2zm37-23c1.654 0 3-1.346 3-3s-1.346-3-3-3-3 1.346-3 3 1.346 3 3 3zm0-4c.551 0 1 .448 1 1s-.449 1-1 1-1-.448-1-1 .449-1 1-1zm1.825 12.036c5.488-1.995 9.175-7.26 9.175-13.098 0-5.437-3.121-10.307-8-12.603v-1.335c0-1.103-.897-2-2-2h-2c-1.103 0-1.999.897-2 1.999h-7.5c-3.033 0-5.5 2.468-5.5 5.5 0 2.347 1.48 4.349 3.554 5.138-.125.171-.242.351-.34.544-1.01 1.969-2.214 4.751-2.214 6.819v.721l3 1v1.865c0 1.179.459 2.287 1.293 3.121.734.734 1.686 1.157 2.707 1.253v3.04h-.184c-.414-1.161-1.514-2-2.816-2h-2c-1.654 0-3 1.346-3 3s1.346 3 3 3h2c1.302 0 2.402-.839 2.816-2h2.375c-3.246 3.007-5.191 7.274-5.191 11.849v5.151h-1c-3.519 0-6.432 2.614-6.92 6h-2.08v-17c0-1.654-1.346-3-3-3h-22c-1.654 0-3 1.346-3 3v18c0 2.757 2.243 5 5 5h22 11 1 21v-17-1-.955c0-6.51-4.668-11.915-11-12.927v-.418zm7.175-13.098c0 5.001-3.158 9.51-7.858 11.22l-1.142.414v-2.572c3.86 0 7-3.141 7-7 0-2.785-1.639-5.188-4-6.315v-6.101c3.686 2.109 6 6.021 6 10.354zm-9-2.938c2.757 0 5 2.243 5 5s-2.243 5-5 5-5-2.243-5-5 2.243-5 5-5zm1-11v9.08c-.328-.047-.66-.08-1-.08s-.672.033-1 .08v-9.08zm-15 5.499c0-1.93 1.57-3.5 3.5-3.5h7.5v7h-6-.223-1.277c-1.93 0-3.5-1.57-3.5-3.5zm8 20.501 2-.001-.001-2-3.585.001c-.645 0-1.251-.251-1.707-.707s-.707-1.063-.707-1.707v-3.307l-2.944-.981c.191-1.298.862-3.108 1.938-5.205.345-.675 1.029-1.094 1.783-1.094h.223 4.112c-1.301 1.272-2.112 3.043-2.112 5.001 0 3.164 2.112 5.842 5 6.705v3.295c0 1.654-1.346 3-3 3h-1zm-5 5h-2c-.551 0-1-.448-1-1s.449-1 1-1h2c.551 0 1 .448 1 1s-.449 1-1 1zm-1 19h3v4h-7.899c.464-2.279 2.484-4 4.899-4zm-11-13v17h-2v-11-7h1c.551 0 1 .448 1 1zm-23-1h19v7 11h-20v-17c0-.552.449-1 1-1zm-.816 20h19.917c.152.743.482 1.416.924 2h-18.025c-1.302 0-2.402-.839-2.816-2zm35.816 2h-11c-1.304 0-2.416-.836-2.829-2h2.829 3 11.829c-.413 1.164-1.525 2-2.829 2zm20 0h-15.026c.442-.584.773-1.257.924-2h3.102c2.795 0 5.565-.924 7.8-2.601 1.289-.966 2.361-2.165 3.2-3.506zm0-16.955v.955 1c0 3.444-1.645 6.733-4.4 8.8-1.891 1.419-4.235 2.2-6.6 2.2h-3-2v-4h5c1.505 0 2.997-.497 4.2-1.4 1.753-1.314 2.8-3.408 2.8-5.6v-2h-2v2c0 1.565-.748 3.061-2 4-.859.645-1.925 1-3 1h-7v-5.151c0-5.498 3.199-10.496 8.166-12.817 5.623.639 9.834 5.324 9.834 11.013zm-45.667-9.045c.731 0 1.429-.35 1.866-.934l2.301-3.066h4.53c2.781 0 5.257-1.868 6.022-4.543l2.707-9.474c.16-.561.241-1.14.241-1.721 0-3.452-2.81-6.262-6.263-6.262h-19.474c-3.453 0-6.263 2.81-6.263 6.263 0 .581.081 1.16.241 1.721l2.707 9.474c.764 2.674 3.24 4.542 6.022 4.542h3.03v1.667c0 1.286 1.047 2.333 2.333 2.333zm-5.363-6c-1.893 0-3.579-1.271-4.099-3.092l-2.707-9.474c-.109-.381-.164-.776-.164-1.171 0-2.351 1.912-4.263 4.263-4.263h19.475c2.35 0 4.262 1.912 4.262 4.263 0 .396-.055.79-.164 1.172l-2.707 9.474c-.52 1.82-2.206 3.091-4.099 3.091h-5.53l-2.901 3.867c-.17.23-.599.088-.599-.2v-3.667zm16.03-16h-6v2h-4v2h-4v2h-4v8h18zm-6 4v8h-2v-8zm-10 4h2v4h-2zm4-2h2v6h-2zm10 6h-2v-10h2z" fill="url(#SVGID_1_)"/></svg>