<svg id="Layer_5" enable-background="new 0 0 64 64" height="512" viewBox="0 0 64 64" width="512" xmlns="http://www.w3.org/2000/svg" xmlns:xlink="http://www.w3.org/1999/xlink"><linearGradient id="SVGID_1_" gradientUnits="userSpaceOnUse" x1="32" x2="32" y1="63" y2="1"><stop offset="0" stop-color="#9f2fff"/><stop offset="1" stop-color="#0bb1d3"/></linearGradient><path d="m32 33c7.168 0 13-5.832 13-13s-5.832-13-13-13-13 5.832-13 13 5.832 13 13 13zm0-24c6.065 0 11 4.935 11 11s-4.935 11-11 11-11-4.935-11-11 4.935-11 11-11zm-4 14.095v-1.095h2v1.095c0 1.051.855 1.905 1.906 1.905h.188c1.051 0 1.906-.854 1.906-1.905 0-.821-.523-1.549-1.303-1.809l-2.027-.676c-1.597-.532-2.67-2.021-2.67-3.705 0-1.84 1.284-3.378 3-3.789v-2.116h2v2.117c1.716.411 3 1.948 3 3.789l-2 .094v-.095c0-1.051-.855-1.905-1.906-1.905h-.188c-1.051 0-1.906.854-1.906 1.905 0 .821.523 1.549 1.303 1.809l2.026.676c1.597.532 2.67 2.021 2.67 3.705 0 1.84-1.284 3.378-3 3.789v2.116h-2v-2.117c-1.715-.411-2.999-1.948-2.999-3.788zm18.82 5.202c.653-1.164 1.165-2.399 1.527-3.685l2.653-.893v-7.438l-2.653-.894c-.362-1.285-.874-2.521-1.527-3.685l1.244-2.509-5.258-5.259-2.509 1.246c-1.164-.652-2.398-1.165-3.685-1.526l-.894-2.654h-7.437l-.894 2.653c-1.286.361-2.521.874-3.685 1.526l-2.509-1.244-5.258 5.259 1.244 2.509c-.653 1.164-1.165 2.399-1.527 3.685l-2.652.893v7.438l2.653.894c.362 1.285.874 2.521 1.527 3.685l-.349.702h-15.831v34h62v-34h-15.831zm14.18 8.623v6.16c-3.059.441-5.479 2.861-5.92 5.92h-16.775c2.834-1.992 4.695-5.28 4.695-9 0-1.49-.296-2.93-.86-4.266l.665.33 5.065-5.064h7.21c.441 3.059 2.861 5.479 5.92 5.92zm-52.08-5.92h7.21l5.064 5.064.665-.33c-.563 1.336-.859 2.776-.859 4.266 0 3.72 1.861 7.008 4.695 9h-16.775c-.441-3.059-2.861-5.479-5.92-5.92v-6.16c3.059-.441 5.479-2.861 5.92-5.92zm20.343 8c.266.598.716 1.108 1.314 1.407l1.95.975c.292.145.473.438.473.764 0 .47-.383.854-.854.854h-.292c-.471 0-.854-.384-.854-.854v-1.146h-2v1.146c0 1.275.845 2.344 2 2.709v2.145h2v-2.145c1.155-.366 2-1.435 2-2.709 0-1.087-.604-2.065-1.578-2.553l-1.186-.593h3.482l.894-2.653c1.031-.29 2.02-.703 2.977-1.183.924 1.441 1.411 3.097 1.411 4.836 0 4.963-4.038 9-9 9s-9-4.037-9-9c0-1.739.487-3.395 1.411-4.837.957.48 1.945.893 2.977 1.183l.894 2.654zm-22.364 10h-3.899v-3.899c1.956.399 3.5 1.943 3.899 3.899zm37.687 2 2 2h-43.586v-2zm5.414 2.586-2.586-2.586h5.172zm-43.414 1.414 2 2h-5.586v-2zm2.828 0h5.172l-2.586 2.586zm8 0h31.172l1.414 1.414 1.414-1.414h9.586v2h-45.586zm36-2 2-2h5.586v2zm3.687-4c.399-1.956 1.943-3.5 3.899-3.899v3.899zm-42.101-26.719v-4.563l2.322-.782.132-.533c.36-1.462.938-2.856 1.717-4.145l.285-.47-1.09-2.196 3.227-3.228 2.196 1.09.47-.284c1.287-.779 2.681-1.356 4.144-1.718l.533-.131.782-2.321h4.563l.782 2.322.533.131c1.463.361 2.857.938 4.144 1.718l.47.284 2.196-1.09 3.227 3.228-1.09 2.196.285.47c.779 1.288 1.357 2.683 1.717 4.145l.132.533 2.323.782v4.563l-2.322.782-.132.533c-.36 1.462-.938 2.856-1.717 4.145l-.285.47 1.09 2.196-3.227 3.228-2.196-1.09-.47.284c-1.29.779-2.684 1.357-4.144 1.718l-.533.131-.782 2.321h-4.563l-.782-2.322-.533-.131c-1.46-.36-2.854-.938-4.144-1.718l-.47-.284-2.196 1.09-3.227-3.228 1.09-2.196-.285-.47c-.779-1.288-1.357-2.683-1.717-4.145l-.132-.533zm-8.101 8.719c-.399 1.956-1.943 3.5-3.899 3.899v-3.899zm-3.899 30v-2h7.586l1.414 1.414 1.414-1.414h47.586v2zm58-26.101c-1.956-.399-3.5-1.943-3.899-3.899h3.899z" fill="url(#SVGID_1_)"/></svg>