<svg id="Layer_5" enable-background="new 0 0 64 64" height="512" viewBox="0 0 64 64" width="512" xmlns="http://www.w3.org/2000/svg" xmlns:xlink="http://www.w3.org/1999/xlink"><linearGradient id="SVGID_1_" gradientUnits="userSpaceOnUse" x1="32" x2="32" y1="63.002" y2="1.001"><stop offset="0" stop-color="#9f2fff"/><stop offset="1" stop-color="#0bb1d3"/></linearGradient><path d="m52.291 42h-1.872c-1.53-5.453-5.889-9.591-11.419-10.824v-3.557l.614-.307c4.556-2.279 7.386-6.858 7.386-11.951 0-7.367-5.994-13.361-13.361-13.361h-5.139c-3.033 0-5.5 2.468-5.5 5.5 0 2.358 1.495 4.368 3.584 5.149-.886 1.928-2.584 5.935-2.584 8.352v.721l2.805.936-.577 2.308c-.186.742-.099 1.528.243 2.214.499.999 1.457 1.645 2.529 1.755v2.32c-5.619 1.792-10.05 6.24-11.875 11.791l-3.72-6.046h.595c1.654 0 3-1.346 3-3v-2c0-.771-.301-1.468-.78-2 .48-.532.78-1.229.78-2v-2c0-1.654-1.346-3-3-3h-.556c.344-.591.556-1.268.556-2v-1.791c0-.68.322-1.293.862-1.64 2.591-1.666 4.138-4.496 4.138-7.569 0-2.561-1.096-5.008-3.006-6.714-1.909-1.706-4.476-2.516-7.039-2.228-4.051.459-7.365 3.723-7.88 7.763-.447 3.51 1.118 6.867 4.084 8.762.519.331.841.97.841 1.667v1.75c0 .732.212 1.409.556 2h-.556c-1.654 0-3 1.346-3 3v2c0 .771.301 1.468.78 2-.479.532-.78 1.229-.78 2v2c0 .771.301 1.468.78 2-.479.532-.78 1.229-.78 2 0 1.654 1.346 3 3 3h2.261l2.569 8.349c.856 2.782 3.387 4.651 6.297 4.651 2.495 0 4.765-1.443 5.873-3.64v12.64h20.64.36 2c1.654 0 3-1.346 3-3h4v.002c0 1.654 1.346 3 3.001 3l2-.001c1.654-.001 2.999-1.348 2.999-3v-.762l.871-1.743c.738-1.479 1.129-3.135 1.129-4.787 0-5.905-4.804-10.709-10.709-10.709zm-12.916-8.655-.316 1.739c-.186 1.023-.516 1.999-.95 2.922l-2.612-2.089 2.83-2.83c.355.073.704.159 1.048.258zm-5.375 3.936 3.097 2.477c-.832 1.19-1.872 2.234-3.097 3.057-1.225-.823-2.265-1.868-3.097-3.057zm-5.74-10.997c-.129-.258-.162-.555-.092-.835l1.026-4.104-3.142-1.047c.295-2.159 1.746-5.556 2.573-7.298h1.375v-2h-1.5c-1.93 0-3.5-1.57-3.5-3.5s1.57-3.5 3.5-3.5h5.139c6.264 0 11.361 5.097 11.361 11.361 0 4.221-2.297 8.012-6 9.996v-2.943l1.121-1.121c.567-.566.879-1.32.879-2.121v-.172c0-1.304-.836-2.416-2-2.829v-1.171c0-2.206-1.794-4-4-4v2c1.103 0 2 .897 2 2v3h1c.551 0 1 .448 1 1v.172c0 .263-.107.521-.293.707l-1.707 1.707v10l-3 3-3-3v-2.811c4.833-.788 5-3.448 5-3.775l-1.999-.047c-.002.018-.228 1.693-4.599 2-.454.04-.925-.235-1.142-.669zm1.46 6.85 2.783 2.783-2.612 2.089c-.434-.923-.764-1.9-.95-2.922l-.287-1.577c.35-.136.705-.26 1.066-.373zm-14.72.866c0 .552-.449 1-1 1h-7-1c-.551 0-1-.448-1-1v-2c0-.552.449-1 1-1h1v2h2v-2h2v2h2v-2h1c.551 0 1 .448 1 1zm-11.94-24.926c.4-3.137 2.974-5.672 6.12-6.027.278-.032.555-.048.829-.048 1.725 0 3.353.617 4.652 1.778 1.486 1.328 2.339 3.232 2.339 5.223 0 2.39-1.204 4.591-3.22 5.888-1.057.679-1.703 1.833-1.768 3.112h-1.012v-6.184c1.161-.414 2-1.514 2-2.816 0-1.654-1.346-3-3-3s-3 1.346-3 3c0 1.302.839 2.402 2 2.816v6.184h-1.015c-.074-1.291-.711-2.439-1.749-3.103-2.308-1.474-3.525-4.088-3.176-6.823zm5.94.926c0-.552.449-1 1-1s1 .448 1 1-.449 1-1 1-1-.448-1-1zm-1 11h4c0 1.103-.897 2-2 2s-2-.897-2-2zm-3 5c0-.552.449-1 1-1h1v2h2v-2h2v2h2v-2h1c.551 0 1 .448 1 1v2c0 .552-.449 1-1 1h-8c-.551 0-1-.448-1-1zm18 15v3.818l-1.577 4.205c-.667 1.781-2.394 2.977-4.296 2.977-2.027 0-3.79-1.302-4.386-3.239l-3.002-9.761h-3.739c-.551 0-1-.448-1-1s.449-1 1-1h1 4.057l7.092 11.524 1.703-1.049-1.282-2.084c.99-4.722 4.05-8.745 8.21-11.015l.194 1.064c.714 3.929 3.088 7.361 6.512 9.416l.514.31.515-.309c3.424-2.055 5.798-5.487 6.512-9.416l.252-1.385c3.326 1.54 5.891 4.39 7.051 7.944h-1.609l-1-3h-1.559c-2.157 0-4.082 1.276-4.934 3.223-1.967.829-3.38 2.603-3.735 4.732l-.314 1.884c-.052.31-.25.578-.53.719-1.018.509-1.65 1.53-1.65 2.668.001 3.183 2.591 5.774 5.775 5.774h.586c.475 0 .888.338.981.804l.356 1.785c.028.142.073.277.121.411h-15.818v-20zm37.082 15.602-1.082 2.165v1.234c0 .551-.449.999-1 1l-2 .001c-.552 0-1.001-.448-1.001-1v-2.002h-8v2c0 .552-.449 1-1 1h-2-.36c-.475 0-.888-.338-.981-.804l-.356-1.785c-.279-1.397-1.516-2.411-2.942-2.411h-.586c-2.081 0-3.774-1.693-3.774-3.774 0-.375.208-.711.544-.879.85-.427 1.451-1.24 1.608-2.179l.314-1.885c.26-1.558 1.352-2.835 2.85-3.335l.474-.157.158-.475c.462-1.385 1.754-2.316 3.214-2.316h.117l1 3h7.012c4.802 0 8.709 3.907 8.709 8.709 0 1.344-.317 2.69-.918 3.893zm-1.082-3.893c0 .507-.059 1.018-.175 1.518l-1.948-.453c.081-.352.123-.711.123-1.065 0-2.597-2.112-4.709-4.709-4.709h-.291v-2h.291c3.699 0 6.709 3.01 6.709 6.709zm-16-4.709c0 .552-.448 1-1 1s-1-.448-1-1 .448-1 1-1 1 .448 1 1zm-11.293-33.293-1.414-1.414c.954-.954 1.707-1.707 1.707-4.293h2c0 3.414-1.218 4.633-2.293 5.707z" fill="url(#SVGID_1_)"/></svg>