<svg id="Layer_5" enable-background="new 0 0 64 64" height="512" viewBox="0 0 64 64" width="512" xmlns="http://www.w3.org/2000/svg" xmlns:xlink="http://www.w3.org/1999/xlink"><linearGradient id="SVGID_1_" gradientUnits="userSpaceOnUse" x1="31.791" x2="31.791" y1="63" y2="1"><stop offset="0" stop-color="#9f2fff"/><stop offset="1" stop-color="#0bb1d3"/></linearGradient><path d="m18 12c0 .552-.448 1-1 1s-1-.448-1-1 .448-1 1-1 1 .448 1 1zm19 35.145v-2.145h-2v2.145c-1.155.366-2 1.435-2 2.709 0 1.088.604 2.065 1.578 2.553l1.949.975c.292.145.473.438.473.764 0 .47-.384.854-.854.854h-.291c-.471 0-.855-.384-.855-.854v-1.146h-2v1.146c0 1.275.845 2.344 2 2.709v2.145h2v-2.145c1.155-.366 2-1.435 2-2.709 0-1.088-.604-2.065-1.578-2.553l-1.949-.975c-.292-.145-.473-.438-.473-.764 0-.47.384-.854.854-.854h.291c.471 0 .855.384.855.854v1.146h2v-1.146c0-1.274-.845-2.343-2-2.709zm7.605-45.377-13.187 9.419 1.162 1.627 13.187-9.419c.725-.516 1.74-.516 2.465 0l13.187 9.419 1.162-1.627-13.186-9.419c-1.407-1.004-3.383-1.004-4.79 0zm2.395 3.205 13.257 9.469-1.162 1.627-2.095-1.497v15.428h2v2h-17.653l-.643 3.856c.786.661 1.296 1.64 1.296 2.746v.797c0 1.106-.511 2.084-1.297 2.745l2.599 2.228c2.35 2.013 3.698 4.943 3.698 8.038 0 5.839-4.751 10.59-10.59 10.59h-.82c-5.839 0-10.59-4.751-10.59-10.59 0-3.095 1.348-6.025 3.698-8.04l1.599-1.37h-9.297v20h-17v-31h.004c0-.026-.004-.052-.004-.078 0-3.279 1.523-6.407 4.075-8.453l.205-1.23c-4.501-2.448-7.28-7.088-7.28-12.239 0-3.717 2.911-6.766 6.573-6.987 1.319-1.298 3.061-2.013 4.912-2.013h6.515c2.206 0 4 1.794 4 4 0 1.643-.997 3.055-2.417 3.67 1.009 1.703 2.417 4.532 2.417 8.33v1h-2c0 2.968-2.166 5.439-5 5.917v3.177c2.267 2.231 3.892 5.091 4.601 8.271l10.849.603.009-.015-1.74-6.953h4.434l-.333-2h3.18v-12.427l-2.094 1.496-1.162-1.627zm-14.719 26.027.709 2.838c.526-.424 1.159-.707 1.835-.801l-.339-2.037zm-17.68 6.035-1.827 3.654c.743.199 1.514.311 2.304.311h23.32c.883 0 1.602-.719 1.602-1.602v-.797c0-.882-.719-1.601-1.602-1.601h-1.017l-.276-.553s-.109-.218-.248-.513c-.265-.568-.843-.934-1.473-.934-.658 0-1.231.327-1.544.854l-1.289 2.178zm6.362-21.035c-.248-3.301-1.674-5.649-2.519-7h-.444-3.969c-.822 0-1.552.493-1.856 1.257l-1.498 3.743h-.677c-.552 0-1 .448-1 1 0 .378.147.732.414 1l1.657 1.657-.949 5.692c1.396.519 2.695 1.219 3.878 2.066v-3.415h1c1.028 0 1.957-.4 2.666-1.04-1.526-.187-2.859-1.112-3.56-2.513l1.789-.895c.446.893 1.343 1.448 2.341 1.448h.622c.084-.322.142-.653.142-1v-2zm-12.333 4.133.298-1.79-.928-.929c-.645-.644-1-1.502-1-2.414 0-1.409.977-2.595 2.289-2.915l1.028-2.57c.611-1.528 2.069-2.515 3.714-2.515h3.969 1c1.103 0 2-.897 2-2s-.897-2-2-2h-6.515c-1.336 0-2.592.521-3.536 1.465l-.535.535h-.414c-2.757 0-5 2.243-5 5 0 4.177 2.134 7.963 5.63 10.133zm-2.63 11.789c0 2.362.92 4.584 2.591 6.255l.232.232c.624.624 1.325 1.142 2.08 1.548l2.028-4.057-.761-2.661c-.601-2.103-2.292-3.738-4.414-4.27l.486-1.939c2.813.703 5.055 2.872 5.852 5.66l.671 2.351 3.749.208c-1.222-4.624-4.651-8.417-9.194-10.068l-.137-.05c-2.021 1.709-3.183 4.196-3.183 6.791zm13 29.078v-10h-13v10h9v-5.586c0-1.179.459-2.287 1.293-3.121l1.414 1.414c-.456.456-.707 1.063-.707 1.707v5.586zm0-18h-3.922c-2.896 0-5.62-1.128-7.669-3.177l-.232-.232c-.438-.438-.825-.913-1.177-1.408v10.817h13zm19.606-.021c-.07.004-.136.021-.208.021h-5.029l-3.37 2.889c-1.906 1.633-2.999 4.01-2.999 6.521 0 4.736 3.854 8.59 8.59 8.59h.82c4.736 0 8.59-3.854 8.59-8.59 0-2.511-1.093-4.888-2.999-6.521zm.208-7.942 1.005-6.037h-3.639l.724 4.345c.742.342 1.357.92 1.727 1.663.063.004.121.022.183.029zm10.186-13.037h-4v8h4zm6-8.856-8-5.714-8 5.714v13.856h3.181l-.5 3h1.319v-10h8v10h4zm-8-3.144c2.206 0 4 1.794 4 4s-1.794 4-4 4-4-1.794-4-4 1.794-4 4-4zm0 2c-1.103 0-2 .897-2 2s.897 2 2 2 2-.897 2-2-.897-2-2-2z" fill="url(#SVGID_1_)"/></svg>