<svg id="Layer_5" enable-background="new 0 0 64 64" height="512" viewBox="0 0 64 64" width="512" xmlns="http://www.w3.org/2000/svg" xmlns:xlink="http://www.w3.org/1999/xlink"><linearGradient id="SVGID_1_" gradientUnits="userSpaceOnUse" x1="32" x2="32" y1="63" y2="1"><stop offset="0" stop-color="#9f2fff"/><stop offset="1" stop-color="#0bb1d3"/></linearGradient><path d="m55 20.865v4.135h-2v-19c0-2.757-2.243-5-5-5h-32c-2.757 0-5 2.243-5 5v19h-2v-4.135l-6.872 5.726c-.717.598-1.128 1.476-1.128 2.409s.411 1.811 1.128 2.409l6.872 5.726v-4.135h2v19c0 2.757 2.243 5 5 5h5.695c.199.42.425.827.705 1.199l1.6 2.134v2.667h18v-2.667l1.6-2.133c.28-.373.506-.78.705-1.2h3.695c2.757 0 5-2.243 5-5v-19h2v4.135l6.872-5.726c.717-.598 1.128-1.476 1.128-2.409s-.411-1.811-1.128-2.409zm-48 10.135v1.865l-3.591-2.993c-.26-.216-.409-.534-.409-.872s.149-.656.409-.872l3.591-2.993v1.865h4v4zm36 23c0 1.075-.355 2.141-1 3l-2 2.667v1.333h-14v-1.333l-2-2.668c-.645-.858-1-1.924-1-2.999v-4.584c0-1.081-.256-2.164-.739-3.13l-1.195-2.392c-.044-.084-.066-.18-.066-.276 0-.341.277-.618.618-.618 2.968 0 5.382 2.414 5.382 5.382v1.576 2.042h2v-2.042-1.576-16.382c0-.552.448-1 1-1s1 .448 1 1v10 4h2v-4c0-.552.448-1 1-1s1 .448 1 1v1 3h2v-3c0-.552.448-1 1-1s1 .448 1 1v1 2h2v-2c0-.552.448-1 1-1s1 .448 1 1zm-16-22v-7h2v4.184c-1.161.414-2 1.514-2 2.816zm8 1v-8h2v8zm-2-1c0-1.302-.839-2.402-2-2.816v-4.184h2zm0 3h9c.552 0 1 .448 1 1v1h-10zm8-2h-2v-8h2zm-19.421-10 9.279-7.593c.643-.525 1.641-.525 2.283 0l9.28 7.593zm3.421 2v8h-2v-8zm-3 10h5v2h-6v-1c0-.552.448-1 1-1zm20 6c-.537 0-1.034.153-1.471.401-.532-.839-1.464-1.401-2.529-1.401-.537 0-1.034.153-1.471.401-.532-.839-1.464-1.401-2.529-1.401-.352 0-.686.072-1 .184v-.184h1 11v-3c0-1.302-.839-2.402-2-2.816v-8.184h2v-2.474l-10.593-8.668c-1.355-1.107-3.459-1.107-4.814 0l-10.593 8.668v2.474h2v8.184c-1.161.414-2 1.514-2 2.816v3h8v4.346c-1.348-1.44-3.259-2.346-5.382-2.346-1.443 0-2.618 1.175-2.618 2.618 0 .404.096.81.276 1.171l1.105 2.211h-3.381v-40h6.219l.433 1.729c.333 1.336 1.531 2.271 2.91 2.271h10.877c1.379 0 2.576-.935 2.91-2.272l.432-1.728h6.219v40h-2v-3c0-1.654-1.346-3-3-3zm9 11c0 1.654-1.346 3-3 3h-3.082c.049-.331.082-.665.082-1v-5h2c1.103 0 2-.897 2-2v-40c0-1.103-.897-2-2-2h-7.781l-.81 3.242c-.112.446-.511.758-.971.758h-10.876c-.46 0-.858-.312-.971-.757l-.81-3.243h-7.781c-1.103 0-2 .897-2 2v40c0 1.103.897 2 2 2h3.976c.011.138.024.277.024.416v4.584c0 .335.033.669.082 1h-5.082c-1.654 0-3-1.346-3-3v-46c0-1.654 1.346-3 3-3h32c1.654 0 3 1.346 3 3zm9.591-22.128-3.591 2.993v-1.865h-4v-4h4v-1.865l3.591 2.993c.26.216.409.534.409.872s-.149.656-.409.872zm-31.591-23.872c0 .552-.448 1-1 1s-1-.448-1-1 .448-1 1-1 1 .448 1 1zm2-1h6v2h-6z" fill="url(#SVGID_1_)"/></svg>