<svg id="Layer_5" enable-background="new 0 0 64 64" height="512" viewBox="0 0 64 64" width="512" xmlns="http://www.w3.org/2000/svg" xmlns:xlink="http://www.w3.org/1999/xlink"><linearGradient id="SVGID_1_" gradientUnits="userSpaceOnUse" x1="32" x2="32" y1="63" y2="1"><stop offset="0" stop-color="#9f2fff"/><stop offset="1" stop-color="#0bb1d3"/></linearGradient><path d="m33 14.146v-1.146h2v1.146c0 .47.383.854.854.854h.292c.471 0 .854-.384.854-.854 0-.325-.181-.618-.473-.764l-1.95-.975c-.973-.487-1.577-1.466-1.577-2.553 0-1.275.845-2.344 2-2.709v-2.145h2v2.145c1.155.366 2 1.435 2 2.709v.146h-2v-.146c0-.47-.383-.854-.854-.854h-.292c-.471 0-.854.384-.854.854 0 .325.181.618.473.764l1.95.975c.973.487 1.577 1.466 1.577 2.553 0 1.275-.845 2.344-2 2.709v2.145h-2v-2.145c-1.155-.366-2-1.435-2-2.709zm-23.071 4.903-8.929 2.232v-18.562l8.929 2.232 2.961-1.184c1.224-.489 2.5-.846 3.792-1.061l9.332-1.556c2.001-.332 4.039-.103 5.908.642 1.263-.506 2.637-.792 4.078-.792 6.065 0 11 4.935 11 11s-4.935 11-11 11c-2.691 0-5.244-.979-7.254-2.747l-9.006.693c-.468.036-.936.054-1.405.054-2.341 0-4.63-.44-6.803-1.31zm26.071-16.049c-4.962 0-9 4.037-9 9 0 .241.035.48.054.721.139.037.276.081.416.116l2.998.75c1.49.372 2.532 1.706 2.532 3.243 0 1.211-.668 2.279-1.655 2.865 1.393.846 2.992 1.305 4.655 1.305 4.962 0 9-4.037 9-9s-4.038-9-9-9zm-11 9c0-1.041.155-2.045.426-3h-3.572c-.471 0-.854.384-.854.854 0 .325.181.618.473.764 1.141.571 2.324 1.057 3.531 1.474-.001-.03-.004-.061-.004-.092zm-14-5.323v10.645l1.275.51c2.322.93 4.817 1.314 7.311 1.119l10.174-.783c.695-.053 1.24-.641 1.24-1.338 0-.617-.418-1.153-1.018-1.304l-2.998-.75c-2.21-.552-4.366-1.35-6.407-2.369-.973-.487-1.577-1.466-1.577-2.553 0-1.574 1.28-2.854 2.854-2.854h4.36c.777-1.515 1.895-2.822 3.253-3.829-1.027-.189-2.081-.222-3.124-.048l-9.332 1.556c-1.152.191-2.288.51-3.378.945zm-2 .104-6-1.5v13.438l6-1.5zm51.254 30.797c1.796 2.694 2.746 5.831 2.746 9.07 0 9.017-7.335 16.352-16.352 16.352h-.648-16-2.648c-9.017 0-16.352-7.335-16.352-16.352 0-3.239.95-6.376 2.746-9.07l4.386-6.578h-.132c-1.654 0-3-1.346-3-3s1.346-3 3-3h38c1.654 0 3 1.346 3 3s-1.346 3-3 3h-.132zm-42.254-8.578h38c.551 0 1-.448 1-1s-.449-1-1-1h-38c-.551 0-1 .448-1 1s.449 1 1 1zm9 24v-2h-1c-.551 0-1 .448-1 1v2c0 .552.449 1 1 1h4 12c.551 0 1-.448 1-1v-2c0-.552-.449-1-1-1h-1v2h-2v-2h-2v2h-2v-2h-1-1v2h-2v-2h-2v2zm7-4h8 8c.551 0 1-.448 1-1v-2c0-.552-.449-1-1-1h-1v2h-2v-2h-1-1v2h-2v-2h-2v2h-2v-2h-2v2h-2v-2h-1c-.551 0-1 .448-1 1v2c0 .552.449 1 1 1zm-3-8v-2h-1c-.551 0-1 .448-1 1v2c0 .552.449 1 1 1h4 12c.551 0 1-.448 1-1v-2c0-.552-.449-1-1-1h-1v2h-2v-2h-2v2h-2v-2h-2v2h-2v-2h-2v2zm15 20c.551 0 1-.448 1-1v-2c0-.552-.449-1-1-1h-1v2h-2v-2h-1-1v2h-2v-2h-2v2h-2v-2h-2v2h-2v-2h-1c-.551 0-1 .448-1 1v2c0 .552.449 1 1 1zm15-14.352c0-2.843-.833-5.596-2.41-7.961l-5.125-7.687h-32.93l-5.125 7.688c-1.577 2.365-2.41 5.118-2.41 7.96 0 7.856 6.347 14.25 14.182 14.343-.111-.311-.182-.642-.182-.991v-2c0-.352.072-.686.184-1h-1.184c-1.654 0-3-1.346-3-3v-2c0-1.654 1.346-3 3-3h5.184c-.112-.314-.184-.648-.184-1v-2c0-.352.072-.686.184-1h-1.184c-1.654 0-3-1.346-3-3v-2c0-1.654 1.346-3 3-3h16c1.654 0 3 1.346 3 3v2c0 .352-.072.686-.184 1h1.184c1.654 0 3 1.346 3 3v2c0 1.654-1.346 3-3 3h-5.184c.112.314.184.648.184 1v2c0 .352-.072.686-.184 1h1.184c1.654 0 3 1.346 3 3v2c0 .282-.052.55-.125.809 6.857-1.076 12.125-7.007 12.125-14.161zm-8.975-14.203-1.664 1.109 1.333 2 1.664-1.109zm2.666 4-1.664 1.109 2.234 3.352c1.138 1.706 1.739 3.692 1.739 5.742l-.005.322 1.999.059c.004-.127.006-.254.006-.381 0-2.446-.717-4.815-2.074-6.852zm-38.747 14.939c.33.792.745 1.553 1.233 2.261l1.646-1.137c-.409-.593-.756-1.229-1.032-1.892zm1.13-11.587c-1.357 2.036-2.074 4.405-2.074 6.851 0 .861.09 1.723.267 2.559l1.957-.414c-.149-.7-.224-1.422-.224-2.145 0-2.051.601-4.036 1.738-5.742l.234-.352-1.664-1.109z" fill="url(#SVGID_1_)"/></svg>