<svg id="Layer_5" enable-background="new 0 0 64 64" height="512" viewBox="0 0 64 64" width="512" xmlns="http://www.w3.org/2000/svg" xmlns:xlink="http://www.w3.org/1999/xlink"><linearGradient id="SVGID_1_" gradientUnits="userSpaceOnUse" x1="32" x2="32" y1="63" y2="1"><stop offset="0" stop-color="#9f2fff"/><stop offset="1" stop-color="#0bb1d3"/></linearGradient><path d="m21.372 2.343c-.497-.828-1.406-1.343-2.372-1.343s-1.875.515-2.372 1.343l-6.395 10.657h17.533zm-3.029 1.029c.275-.459 1.039-.459 1.314 0l4.576 7.628h-10.466zm36.657 6.482v1.146h-2v-1.146c0-.471-.384-.854-.854-.854h-.291c-.471 0-.855.383-.855.854 0 .326.181.619.473.764l1.949.975c.974.487 1.578 1.465 1.578 2.553 0 1.274-.845 2.343-2 2.709v2.145h-2v-2.145c-1.155-.366-2-1.435-2-2.709v-1.146h2v1.146c0 .471.384.854.854.854h.291c.471 0 .855-.383.855-.854 0-.326-.181-.619-.473-.764l-1.949-.975c-.974-.487-1.578-1.465-1.578-2.553 0-1.274.845-2.343 2-2.709v-2.145h2v2.145c1.155.366 2 1.435 2 2.709zm-3-8.854c-6.065 0-11 4.935-11 11s4.935 11 11 11 11-4.935 11-11-4.935-11-11-11zm0 20c-4.963 0-9-4.038-9-9s4.037-9 9-9 9 4.038 9 9-4.037 9-9 9zm0 20c-6.065 0-11 4.935-11 11s4.935 11 11 11 11-4.935 11-11-4.935-11-11-11zm0 20c-4.963 0-9-4.038-9-9s4.037-9 9-9 9 4.038 9 9-4.037 9-9 9zm-49.294-9.683c.215 1.293.571 2.569 1.061 3.792l1.233 3.084v4.807h14v-4.807l.69-1.726c.87-2.172 1.31-4.461 1.31-6.802 0-.469-.018-.938-.054-1.405l-.251-3.26h7.305c1.654 0 3-1.346 3-3v-3.695c1.992 2.834 5.28 4.695 9 4.695 6.065 0 11-4.935 11-11s-4.935-11-11-11c-3.72 0-7.008 1.861-9 4.695v-7.695c0-1.654-1.346-3-3-3h-18c-1.654 0-3 1.346-3 3v11.586l-2.761 2.76c-2.089 2.089-3.239 4.866-3.239 7.821 0 .606.051 1.218.15 1.818zm14.294 9.683h-10v-2h10zm23-38c4.963 0 9 4.038 9 9s-4.037 9-9 9-9-4.038-9-9 4.037-9 9-9zm-11-5v24c0 .551-.448 1-1 1h-7.459l-.378-4.913c-.128-1.673-1.503-2.984-3.163-3.07v-18.017h11c.552 0 1 .449 1 1zm-20 26.816c.314.112.648.184 1 .184h1.325c-.222.516-.456 1.026-.707 1.527-.145.292-.438.473-.764.473-.47 0-.854-.383-.854-.854zm4-27.816h2v18.557c-.683.449-1.204 1.136-1.413 1.976l-.587 2.345zm-4 1c0-.551.448-1 1-1h1v26h-1c-.552 0-1-.449-1-1zm-3.347 15.76 1.347-1.346v9.586 4.146c0 1.574 1.28 2.854 2.854 2.854 1.087 0 2.065-.604 2.553-1.578 1.02-2.041 1.817-4.196 2.369-6.407l.75-2.998c.151-.599.687-1.017 1.304-1.017.697 0 1.285.545 1.339 1.24l.783 10.174c.032.416.048.834.048 1.251 0 2.086-.393 4.125-1.167 6.06l-.51 1.275h-10.646l-1.053-2.633c-.436-1.09-.754-2.227-.945-3.378l-1.556-9.332c-.082-.491-.123-.992-.123-1.49 0-2.42.942-4.696 2.653-6.407zm21.347-14.76h-6v6h6zm-2 4h-2v-2h2zm0 8h2v2h-2zm0 4h2v2h-2zm0 4h2v2h-2zm-2 2h-2v-10h2zm14-6h-2v-2h2v-2h-2v-2h2c0-2.206 1.794-4 4-4s4 1.794 4 4v1h-2v-1c0-1.103-.897-2-2-2s-2 .897-2 2h2v2h-2v2h2v2h-2c0 1.103.897 2 2 2s2-.897 2-2v-1h2v1c0 2.206-1.794 4-4 4s-4-1.794-4-4zm19.781 11.625-3.5 4.375h1.719v2h-2v2h2v2h-2v2h-2v-2h-2v-2h2v-2h-2v-2h1.719l-3.501-4.375 1.563-1.249 3.219 4.023 3.219-4.024z" fill="url(#SVGID_1_)"/></svg>