<svg id="Layer_5" enable-background="new 0 0 64 64" height="512" viewBox="0 0 64 64" width="512" xmlns="http://www.w3.org/2000/svg" xmlns:xlink="http://www.w3.org/1999/xlink"><linearGradient id="SVGID_1_" gradientUnits="userSpaceOnUse" x1="32" x2="32" y1="63" y2="1"><stop offset="0" stop-color="#9f2fff"/><stop offset="1" stop-color="#0bb1d3"/></linearGradient><path d="m60 39h-10c-1.654 0-3 1.346-3 3v18c0 1.654 1.346 3 3 3h10c1.654 0 3-1.346 3-3v-18c0-1.654-1.346-3-3-3zm-10 2h10c.551 0 1 .448 1 1v1h-12v-1c0-.552.449-1 1-1zm11 4v12h-12v-12zm-1 16h-10c-.551 0-1-.448-1-1v-1h12v1c0 .552-.449 1-1 1zm-9.707-8.293 1.414-1.414 1.293 1.293 5.293-5.293 1.414 1.414-6.707 6.707zm-39.293-9.707c-5.514 0-10 4.486-10 10s4.486 10 10 10 10-4.486 10-10-4.486-10-10-10zm7.931 11c-.183 1.458-.759 2.792-1.619 3.898l-1.362-1.363-1.414 1.414 1.362 1.362c-1.106.86-2.44 1.436-3.898 1.619v-1.93h-2v1.931c-1.458-.183-2.792-.759-3.898-1.619l1.362-1.362-1.414-1.415-1.362 1.363c-.86-1.106-1.436-2.44-1.619-3.898h1.931v-2h-1.931c.183-1.458.759-2.792 1.619-3.898l1.362 1.363 1.414-1.414-1.362-1.362c1.106-.86 2.44-1.436 3.898-1.619v1.93h2v-1.931c1.458.183 2.792.759 3.898 1.619l-1.362 1.362 1.414 1.414 1.362-1.363c.86 1.106 1.436 2.44 1.619 3.898h-1.931v2h1.931zm-6.931-1.414 1.707 1.707-1.414 1.414-2.293-2.293v-4.414h2zm48-51.586h-22c-1.654 0-3 1.346-3 3v12c0 1.654 1.346 3 3 3h22c1.654 0 3-1.346 3-3v-12c0-1.654-1.346-3-3-3zm-22 2h22c.551 0 1 .448 1 1v1h-24v-1c0-.552.449-1 1-1zm22 14h-22c-.551 0-1-.448-1-1v-9h24v9c0 .552-.449 1-1 1zm-7-2h6v-6h-6zm2-4h2v2h-2zm-12 2h2v2h-2zm4 0h2v2h-2zm-8 0h2v2h-2zm0-4h10v2h-10zm-4 20.854v.146h-2v-.146c0-.47-.383-.854-.854-.854h-.292c-.471 0-.854.384-.854.854 0 .325.181.618.473.764l1.95.975c.973.487 1.577 1.466 1.577 2.553 0 1.275-.845 2.344-2 2.709v2.145h-2v-2.145c-1.155-.366-2-1.435-2-2.709v-1.146h2v1.146c0 .47.383.854.854.854h.292c.471 0 .854-.384.854-.854 0-.325-.181-.618-.473-.764l-1.95-.975c-.973-.487-1.577-1.466-1.577-2.553 0-1.275.845-2.344 2-2.709v-2.145h2v2.145c1.155.366 2 1.435 2 2.709zm1 12.382c3.794-1.488 6.567-5.018 6.949-9.236h7.051v-12h-2v10h-5.051c-.507-5.598-5.221-10-10.949-10-1.981 0-3.836.534-5.443 1.453-.356-.586-.902-1.036-1.557-1.269v-8.184h2v-2.474l-10.593-8.668c-1.354-1.107-3.458-1.107-4.814 0l-10.593 8.668v2.474h2v8.184c-1.161.414-2 1.514-2 2.816v3h21.214c-.626 1.221-1.034 2.57-1.164 4h-7.05v-2h-2v4h9.051c.382 4.218 3.155 7.748 6.949 9.236v9.764h-5v2h7v-11.191c.65.12 1.316.191 2 .191s1.35-.071 2-.191v9.191h11v-2h-9zm-13-21.236h-2v-8h2zm-12-8v8h-2v-8zm2 0h2v8h-2zm4 0h2v8h-2zm-4.141-9.593c.643-.525 1.64-.525 2.282 0l9.28 7.593h-20.842zm-5.859 9.593v8h-2v-8zm-4 12v-1c0-.552.449-1 1-1h20c.409 0 .759.248.914.6-.504.426-.972.892-1.392 1.4zm20 7c0-4.963 4.038-9 9-9s9 4.037 9 9-4.038 9-9 9-9-4.037-9-9z" fill="url(#SVGID_1_)"/></svg>