<svg id="Layer_5" enable-background="new 0 0 64 64" height="512" viewBox="0 0 64 64" width="512" xmlns="http://www.w3.org/2000/svg" xmlns:xlink="http://www.w3.org/1999/xlink"><linearGradient id="SVGID_1_" gradientUnits="userSpaceOnUse" x1="32" x2="32" y1="63" y2="1"><stop offset="0" stop-color="#9f2fff"/><stop offset="1" stop-color="#0bb1d3"/></linearGradient><path d="m31 19h2v-2.184c1.161-.414 2-1.514 2-2.816 0-.768-.29-1.469-.766-2 .476-.531.766-1.232.766-2 0-1.302-.839-2.402-2-2.816v-2.184h-2v2h-2v10h2zm0-10h1c.551 0 1 .448 1 1s-.449 1-1 1h-1zm0 4h1c.551 0 1 .448 1 1s-.449 1-1 1h-1zm-18 4h-2v-2h2zm45 12h-1v-13c0-2.757-2.243-5-5-5h-9.051c-.507-5.598-5.221-10-10.949-10s-10.442 4.402-10.949 10h-9.051c-2.757 0-5 2.243-5 5v13h-1c-2.757 0-5 2.243-5 5v24c0 2.757 2.243 5 5 5h22c1.641 0 3.088-.806 4-2.031.912 1.225 2.359 2.031 4 2.031h22c2.757 0 5-2.243 5-5v-24c0-2.757-2.243-5-5-5zm0 2c1.654 0 3 1.346 3 3v1h-4v-4zm-1 20h-20v-2h20zm-22-4v4h-2v-6h28v6h-2v-4zm-8 4h-20v-2h20zm-22-4v4h-2v-6h28v6h-2v-4zm26-10v6h-2v-4h-24v4h-2v-6zm1-14c5.728 0 10.442-4.402 10.949-10h4.051v22h-30v-22h4.051c.507 5.598 5.221 10 10.949 10zm-5 20h-20v-2h20zm30 0h-20v-2h20zm2 0v-4h-24v4h-2v-6h28v6zm-4-12h-1c-.551 0-1-.448-1-1v-8c0-.552.449-1 1-1h1zm0-15v3h-1c-1.654 0-3 1.346-3 3v8c0 1.654 1.346 3 3 3h1v2h-6v-22h3c1.654 0 3 1.346 3 3zm-23-13c4.962 0 9 4.037 9 9s-4.038 9-9 9-9-4.037-9-9 4.038-9 9-9zm-20 10h3v22h-6v-19c0-1.654 1.346-3 3-3zm-6 18h1v4h-4v-1c0-1.654 1.346-3 3-3zm22 30h-22c-1.654 0-3-1.346-3-3v-5h28v5c0 1.654-1.346 3-3 3zm30 0h-22c-1.654 0-3-1.346-3-3v-5h28v5c0 1.654-1.346 3-3 3zm-18-28c1.654 0 3-1.346 3-3s-1.346-3-3-3-3 1.346-3 3 1.346 3 3 3zm0-4c.551 0 1 .448 1 1s-.449 1-1 1-1-.448-1-1 .449-1 1-1zm-8 4c1.654 0 3-1.346 3-3s-1.346-3-3-3-3 1.346-3 3 1.346 3 3 3zm0-4c.551 0 1 .448 1 1s-.449 1-1 1-1-.448-1-1 .449-1 1-1zm-8 4c1.654 0 3-1.346 3-3s-1.346-3-3-3-3 1.346-3 3 1.346 3 3 3zm0-4c.551 0 1 .448 1 1s-.449 1-1 1-1-.448-1-1 .449-1 1-1zm-11 0h-2v-6h2z" fill="url(#SVGID_1_)"/></svg>