<svg id="Layer_5" enable-background="new 0 0 64 64" height="512" viewBox="0 0 64 64" width="512" xmlns="http://www.w3.org/2000/svg" xmlns:xlink="http://www.w3.org/1999/xlink"><linearGradient id="SVGID_1_" gradientUnits="userSpaceOnUse" x1="31.863" x2="31.863" y1="63" y2="1"><stop offset="0" stop-color="#9f2fff"/><stop offset="1" stop-color="#0bb1d3"/></linearGradient><path d="m59 23c0-5.514-4.486-10-10-10s-10 4.486-10 10c0 3.273 1.588 6.175 4.026 8h-4.026v2c0 2.075 1.594 3.766 3.619 3.961l-3.659 5.946c-.998-7.619-6.504-13.826-13.999-15.698l14.313-17.177-6.774-9.032h-21l-6.774 9.032 14.32 17.185c-8.18 2.113-14.046 9.594-14.046 18.1v2.683c0 4.264 2.444 7.961 6 9.786v5.214h22v-12.641c1.107 2.198 3.377 3.641 5.873 3.641 2.91 0 5.44-1.869 6.297-4.65l2.568-8.35h2.262c1.654 0 3-1.346 3-3 0-.352-.072-.686-.184-1h2.184c2.206 0 4-1.794 4-4v-2h-4.026c2.438-1.825 4.026-4.727 4.026-8zm-33 30c.552 0 1 .448 1 1 0 1.654-1.346 3-3 3h-4v-3.697l1.238-1.857c.186-.28.497-.446.832-.446h.93c.552 0 1 .448 1 1v1zm-4-17.399 2.158 2.698-2.158 5.124-2.158-5.125zm3.041.599-1.743-2.178 3.523-4.11c.248.102.487.217.729.331zm-6.082 0-2.493-5.92c.243-.118.486-.236.736-.342l3.5 4.084zm-.57 3.8h-2.593l-1.889-8.184c.262-.192.529-.378.802-.554zm.896 2.129 1.715 4.073v1.384l-3.586-3.586zm3.715 4.073 1.715-4.073 1.871 1.871-3.586 3.586zm2.611-6.202 3.705-8.798c.27.169.538.343.797.527l-1.909 8.271zm.073-29-3.684 13.263-3.684-13.263zm-6.88-2 3.196-5.113 3.196 5.113zm8.956 2h8.105l-12.157 14.588zm1.044-2 3.271-5.233 3.925 5.233zm-1.804-.887-3.196-5.113h6.392zm-10 0-3.196-5.113h6.392zm-1.804.887h-7.196l3.925-5.233zm1.044 2 4.052 14.588-12.157-14.588zm5.76 18h1.469.417l.296.068c.201.046.394.108.591.161l-2.773 3.235-2.768-3.23c.291-.081.579-.169.876-.234h.424zm-15 19v-2.683c0-4.661 1.979-8.972 5.188-12.052l2.016 8.735h2.382l-2 2 5.649 5.649c-.25.195-.48.415-.661.687l-1.057 1.585-2.083-.298c-1.957-.279-3.434-1.981-3.434-3.96v-4.663h-2v4.663c0 2.967 2.215 5.521 5.151 5.94l1.849.264v3.133h-2c-4.963 0-9-4.037-9-9zm36.258.762c-.596 1.936-2.359 3.238-4.385 3.238-1.902 0-3.629-1.196-4.296-2.978l-1.577-4.204v-1.818h-2v18h-18v-2.426c.955.271 1.959.426 3 .426h8c2.757 0 5-2.243 5-5 0-1.654-1.346-3-3-3h-.171c-.281-.793-.891-1.426-1.661-1.754l5.246-5.246-2-2h2.382l2.043-8.854c2.955 2.761 4.883 6.565 5.238 10.817l.147 1.764-1.076 1.749 1.703 1.049 4.631-7.525h3.165zm7.742-10.762c0 .552-.448 1-1 1h-3-.738-2.549l1.231-2h4.056 1c.552 0 1 .448 1 1zm6-5c0 1.103-.897 2-2 2h-5-1-6c-1.103 0-2-.897-2-2zm-16-10c0-4.411 3.589-8 8-8s8 3.589 8 8-3.589 8-8 8-8-3.589-8-8zm8.014-6.164 1.973.328-2 12-1.973-.328zm4.986 7.164c0 .552-.448 1-1 1s-1-.448-1-1 .448-1 1-1 1 .448 1 1zm-8-2c0 .552-.448 1-1 1s-1-.448-1-1 .448-1 1-1 1 .448 1 1z" fill="url(#SVGID_1_)"/></svg>