<svg id="Layer_5" enable-background="new 0 0 64 64" height="512" viewBox="0 0 64 64" width="512" xmlns="http://www.w3.org/2000/svg" xmlns:xlink="http://www.w3.org/1999/xlink"><linearGradient id="SVGID_1_" gradientUnits="userSpaceOnUse" x1="32" x2="32" y1="63" y2="1"><stop offset="0" stop-color="#9f2fff"/><stop offset="1" stop-color="#0bb1d3"/></linearGradient><path d="m32 29c1.654 0 3-1.346 3-3s-1.346-3-3-3-3 1.346-3 3 1.346 3 3 3zm0-4c.552 0 1 .448 1 1s-.448 1-1 1-1-.448-1-1 .448-1 1-1zm9 14h2v2h-2v2h-2v-2h-2v-2h2v-2h2zm.414 13 2.293 2.293-1.414 1.414-2.293-2.293-2.293 2.293-1.414-1.414 2.293-2.293-2.293-2.293 1.414-1.414 2.293 2.293 2.293-2.293 1.414 1.414zm7.586-11v-2h6v2zm0 8h6v2h-6zm0 4h6v2h-6zm9-36h-9.266c-1.189-6.646-6.269-12.05-13.001-13.561-.553-1.423-1.93-2.439-3.546-2.439h-.373c-1.617 0-2.994 1.016-3.547 2.439-7.721 1.733-13.267 8.591-13.267 16.561 0 3.302.961 6.377 2.597 8.989l-2.579 2.579-1-1-11.483 11.483c-.99.99-1.535 2.306-1.535 3.707 0 2.89 2.352 5.242 5.242 5.242 1.4 0 2.717-.545 3.707-1.535l11.483-11.483-1-1 2.579-2.579c1.801 1.128 3.822 1.928 5.989 2.316v21.281c0 2.757 2.243 5 5 5h24c2.757 0 5-2.243 5-5v-36c0-2.757-2.243-5-5-5zm-9.281 6h8.281v6h-10.604c1.131-1.804 1.934-3.828 2.323-6zm-16.906-20h.373c1.001 0 1.814.813 1.814 1.813 0 .08-.005.159-.016.24l-1.844 13.823c-.02.141-.262.141-.281 0l-1.843-13.823c-.011-.08-.016-.159-.016-.24 0-1 .813-1.813 1.813-1.813zm.187 18c1.07 0 1.982-.8 2.123-1.859l1.279-9.591c4.46 1.454 7.598 5.684 7.598 10.45 0 6.065-4.935 11-11 11s-11-4.935-11-11c0-4.766 3.138-8.996 7.598-10.451l1.279 9.591c.141 1.06 1.053 1.86 2.123 1.86zm-3.937-15.461.267 2.001c-5.457 1.61-9.33 6.704-9.33 12.46 0 7.168 5.832 13 13 13s13-5.832 13-13c0-5.756-3.873-10.85-9.33-12.46l.267-2.001c6.477 1.753 11.063 7.651 11.063 14.461 0 8.271-6.729 15-15 15s-15-6.729-15-15c0-6.81 4.586-12.708 11.063-14.461zm6.937 41.461h10v10h-10zm12 0h10v10h-10zm10-2h-10v-10h10zm-12 0h-10v-8.281c1.77-.317 3.447-.898 4.983-1.719h5.017zm-36.465 3.051c-.612.612-1.427.949-2.293.949-1.788 0-3.242-1.454-3.242-3.242 0-.866.337-1.681.949-2.293l10.069-10.069 4.586 4.586zm10.484-12.484-2.586-2.586 2.334-2.334c.767.952 1.634 1.818 2.586 2.586zm41.981 22.433c0 1.654-1.346 3-3 3h-24c-1.654 0-3-1.346-3-3v-21.051c.333.02.662.051 1 .051s.667-.031 1-.051v20.051c0 1.103.897 2 2 2h22c1.103 0 2-.897 2-2v-22c0-1.103-.897-2-2-2h-14.068c.724-.609 1.393-1.28 2.006-2h12.062c1.103 0 2-.897 2-2v-6c0-1.103-.897-2-2-2h-8.051c.02-.333.051-.662.051-1 0-.337-.025-.668-.044-1h9.044c1.654 0 3 1.346 3 3zm-35.779-39.75-1.938-.5c.19-.736.474-1.446.843-2.11l1.748.971c-.286.515-.506 1.067-.653 1.639zm-.221 1.75c0 1.23.323 2.44.936 3.499l-1.73 1.002c-.789-1.363-1.206-2.919-1.206-4.501z" fill="url(#SVGID_1_)"/></svg>