<svg id="Layer_5" enable-background="new 0 0 64 64" height="512" viewBox="0 0 64 64" width="512" xmlns="http://www.w3.org/2000/svg" xmlns:xlink="http://www.w3.org/1999/xlink"><linearGradient id="SVGID_1_" gradientUnits="userSpaceOnUse" x1="32" x2="32" y1="63.003" y2="1"><stop offset="0" stop-color="#9f2fff"/><stop offset="1" stop-color="#0bb1d3"/></linearGradient><path d="m13 41c0 .552-.448 1-1 1s-1-.448-1-1 .448-1 1-1 1 .448 1 1zm31.938-26.635.03-.119-1.938-.492-.032.123c-.457 1.839-2.102 3.123-3.998 3.123s-3.541-1.284-4.001-3.127l-.03-.119-1.938.492.028.115c.682 2.732 3.126 4.639 5.941 4.639s5.259-1.907 5.938-4.635zm-.938-5.365c1.654 0 3-1.346 3-3h-2c0 .552-.448 1-1 1s-1-.448-1-1h-2c0 1.654 1.346 3 3 3zm-7-3h-2c0 .552-.448 1-1 1s-1-.448-1-1h-2c0 1.654 1.346 3 3 3s3-1.346 3-3zm26 40.028v2.111c0 4.022-1.459 7.903-4.106 10.929-2.187 2.499-5.344 3.932-8.664 3.932-1.621 0-3.194-.334-4.675-.992l-6.558-2.914v1.907c.002.533-.205 1.036-.581 1.414-.378.379-.881.588-1.417.588h-4c-1.103 0-2-.897-2-2v-2.003c0-.552-.448-1-1-1h-9.999c-.552 0-1 .448-1 1v2c0 1.103-.897 2-2 2h-4c-1.103 0-2-.897-2-2v-2.38c0-1.548-1.161-2.831-2.701-2.985-4.161-.416-7.299-3.883-7.299-8.065v-2.009c0-1.379.935-2.576 2.271-2.91l.478-.119c.824-.206 1.434-.883 1.554-1.724.432-3.024 2.871-5.37 5.841-5.754l.048-.287c.557-3.341 3.42-5.767 6.808-5.767h.847l.62 3.72c3.182-4.231 7.802-7.241 13.011-8.397l.69-.152.394-2.487c-3.888-1.988-6.562-6.025-6.562-10.684v-.101c-2.279-.465-4-2.485-4-4.899 0-1.13.391-2.162 1.026-3h-3.026v-2h36v2h-3.026c.635.838 1.026 1.87 1.026 3 0 2.414-1.721 4.434-4 4.899v.101c0 4.659-2.674 8.697-6.563 10.684l.395 2.487.759.168c10.25 2.271 17.409 11.19 17.409 21.689zm-13-16.644v-1.364c-.784-.397-1.602-.744-2.448-1.042l-.655 6.022h-15.793l-.665-5.988c-.84.303-1.651.667-2.44 1.075v.31c0 1.603-.146 3.208-.422 4.789 1.27.294 2.409.932 3.311 1.814h.044.002c3.222 0 6.251 1.255 8.53 3.533s3.536 5.309 3.536 8.531c0 1.24-.188 2.454-.557 3.625l7.344 2.203c2.021-1.7 3.213-4.24 3.213-6.892v-1.796c-1.991-4.714-3-9.698-3-14.82zm-19 10.616c0-2.757-2.243-5-5-5s-5 2.243-5 5c0 .34.044.672.111 1h9.778c.067-.328.111-.66.111-1zm22-34c0-1.302-.839-2.402-2-2.816v5.631c1.161-.413 2-1.513 2-2.815zm-26 2.816v-5.632c-1.161.414-2 1.514-2 2.816s.839 2.402 2 2.816zm12 12.184c5.514 0 10-4.486 10-10v-8h-20v8c0 5.514 4.486 10 10 10zm-6.613 5.422.509 4.578h12.207l.5-4.595c-.149-.036-.294-.08-.445-.113l-2.088-.463-.533-3.362c-1.119.346-2.306.533-3.537.533s-2.419-.188-3.538-.533l-.533 3.362-2.02.447c-.176.04-.346.101-.522.146zm-12.051 8.578h.775c1.167-1.142 2.732-1.873 4.464-1.978.224-1.234.358-2.483.402-3.736-2.229 1.502-4.15 3.438-5.641 5.714zm16.662 23.857c0-.066.003-.347.01-.648l-5.255-2.335c-1.673-.744-2.753-2.407-2.753-4.237 0-2.55 2.068-4.625 4.614-4.637.789-.652 1.754-1 2.772-1 1.999 0 3.733 1.354 4.218 3.293l.068.271c.21-.814.328-1.649.328-2.5 0-2.688-1.047-5.216-2.948-7.117-1.558-1.557-3.54-2.53-5.682-2.834.401.881.63 1.857.63 2.887 0 .338-.037.67-.085 1h2.085v2h-18v-2h2.085c-.048-.33-.085-.662-.085-1 0-1.074.251-2.089.685-3h-1.532l-.988-5.93c-2.029.346-3.651 1.933-4.001 4.025l-.316 1.905h-.848c-2.356 0-4.385 1.759-4.717 4.092-.235 1.649-1.433 2.976-3.05 3.38l-.477.119c-.444.112-.756.511-.756.971v2.009c0 3.149 2.363 5.761 5.498 6.074 2.566.257 4.502 2.396 4.502 4.975v2.38h4v-2c0-1.654 1.346-3 3-3h10c1.654 0 3 1.346 3 3v2.003h4zm24.002-12.829c0-6.985-3.482-13.201-9-16.848v.203c0 4.918.982 9.703 2.919 14.223l.081.189v2.205c0 3.443-1.645 6.733-4.399 8.8l-.404.303-11.028-3.309-.504-2.017c-.263-1.047-1.199-1.777-2.278-1.777-.627 0-1.217.244-1.66.688l-.293.293-.797.019c-1.454 0-2.637 1.183-2.637 2.637 0 1.041.614 1.986 1.565 2.409l13.803 6.134c1.224.545 2.523.82 3.862.82 2.742 0 5.352-1.184 7.157-3.248 2.331-2.661 3.613-6.075 3.613-9.612z" fill="url(#SVGID_1_)"/></svg>