<svg id="Layer_5" enable-background="new 0 0 64 64" height="512" viewBox="0 0 64 64" width="512" xmlns="http://www.w3.org/2000/svg" xmlns:xlink="http://www.w3.org/1999/xlink"><linearGradient id="SVGID_1_" gradientUnits="userSpaceOnUse" x1="32" x2="32" y1="63" y2="1"><stop offset="0" stop-color="#9f2fff"/><stop offset="1" stop-color="#0bb1d3"/></linearGradient><path d="m59 45h-8v-41c0-1.654-1.346-3-3-3h-35.171c-.801 0-1.555.312-2.122.879l-8.828 8.828c-.567.566-.879 1.32-.879 2.122v47.171c0 1.654 1.346 3 3 3h44c1.654 0 3-1.346 3-3v-7h8c2.206 0 4-1.794 4-4s-1.794-4-4-4zm-48-40.586v5.586c0 .551-.449 1-1 1h-5.586zm38 55.586c0 .551-.449 1-1 1h-44c-.551 0-1-.449-1-1v-47h7c1.654 0 3-1.346 3-3v-7h35c.551 0 1 .449 1 1v41h-2.184c-.414-1.161-1.514-2-2.816-2h-1v-1c0-1.654-1.346-3-3-3h-4c-1.302 0-2.402.839-2.816 2h-1.184c-1.654 0-3 1.346-3 3v10c0 1.654 1.346 3 3 3h1.184c.414 1.161 1.514 2 2.816 2h4c1.654 0 3-1.346 3-3v-1h1c1.302 0 2.402-.839 2.816-2h2.184zm-6-15h1c.551 0 1 .449 1 1v6c0 .551-.449 1-1 1h-1zm-2-3v14c0 .551-.449 1-1 1h-4c-.551 0-1-.449-1-1v-14c0-.551.449-1 1-1h4c.551 0 1 .449 1 1zm-8 13h-1c-.551 0-1-.449-1-1v-10c0-.551.449-1 1-1h1zm26-4h-12v-4h12c1.103 0 2 .897 2 2s-.897 2-2 2zm-32.586-9-4.414-4.414-.753.753c-1.611-.878-3.409-1.339-5.247-1.339-6.065 0-11 4.935-11 11 0 1.838.461 3.636 1.339 5.247l-.753.753 4.414 4.414.753-.753c1.611.878 3.409 1.339 5.247 1.339 6.065 0 11-4.935 11-11 0-1.838-.461-3.636-1.339-5.247zm-19.414 6c0-4.962 4.038-9 9-9 1.303 0 2.581.285 3.757.829l-1.537 1.537c-.717-.242-1.46-.366-2.22-.366-3.86 0-7 3.14-7 7 0 .76.124 1.503.366 2.22l-1.537 1.537c-.544-1.176-.829-2.454-.829-3.757zm4.057.529c-.02-.176-.057-.35-.057-.529 0-2.757 2.243-5 5-5 .179 0 .353.037.529.057zm-2.643 5.471 13.586-13.586 1.586 1.586-13.586 13.586zm12.586-6c0 2.757-2.243 5-5 5-.179 0-.353-.037-.529-.057l5.473-5.473c.019.177.056.351.056.53zm4 0c0 4.962-4.038 9-9 9-1.303 0-2.581-.285-3.757-.829l1.537-1.537c.717.242 1.46.366 2.22.366 3.86 0 7-3.14 7-7 0-.76-.124-1.503-.366-2.22l1.537-1.537c.544 1.176.829 2.454.829 3.757zm14-30.906v-1.094h2v1.094c0 1.051.855 1.906 1.906 1.906h.188c1.051 0 1.906-.855 1.906-1.906 0-.821-.523-1.548-1.303-1.808l-2.026-.676c-1.598-.532-2.671-2.021-2.671-3.704 0-1.841 1.284-3.378 3-3.789v-2.117h2v2.117c1.716.411 3 1.948 3 3.789v1.094h-2v-1.094c0-1.051-.855-1.906-1.906-1.906h-.188c-1.051 0-1.906.855-1.906 1.906 0 .821.523 1.548 1.303 1.808l2.026.676c1.597.533 2.67 2.021 2.67 3.705 0 1.841-1.284 3.378-3 3.789v2.116h-2v-2.117c-1.715-.411-2.999-1.948-2.999-3.789zm-2-10.094h-22v-2h22zm-2 2h2v2h-2zm-2 2h-18v-2h18zm4 4h-22v-2h22zm0 4h-32v-2h32zm0 4h-32v-2h32zm-2 2h2v2h-2zm-2 2h-28v-2h28zm-12 4h-16v-2h16zm0 4h-16v-2h16z" fill="url(#SVGID_1_)"/></svg>