<svg id="Layer_5" enable-background="new 0 0 64 64" height="512" viewBox="0 0 64 64" width="512" xmlns="http://www.w3.org/2000/svg" xmlns:xlink="http://www.w3.org/1999/xlink"><linearGradient id="SVGID_1_" gradientUnits="userSpaceOnUse" x1="32" x2="32" y1="63" y2="1"><stop offset="0" stop-color="#9f2fff"/><stop offset="1" stop-color="#0bb1d3"/></linearGradient><path d="m63 10c0-.933-.411-1.811-1.128-2.409l-6.872-5.726v4.135h-12c0-2.757-2.243-5-5-5h-32c-2.757 0-5 2.243-5 5v46c0 2.757 2.243 5 5 5h5.695c.199.42.425.827.705 1.199l1.6 2.134v2.667h18v-2.667l1.6-2.133c.28-.373.506-.78.705-1.2h3.695c2.757 0 5-2.243 5-5h12v4.135l6.872-5.726c.717-.598 1.128-1.476 1.128-2.409s-.411-1.811-1.128-2.409l-6.71-5.591h7.838v-22h-7.838l6.71-5.591c.717-.598 1.128-1.476 1.128-2.409zm-30 44c0 1.075-.355 2.141-1 3l-2 2.667v1.333h-14v-1.333l-2-2.668c-.645-.858-1-1.924-1-2.999v-4.584c0-1.081-.256-2.164-.739-3.13l-1.195-2.392c-.044-.084-.066-.18-.066-.276 0-.341.277-.618.618-.618 2.968 0 5.382 2.414 5.382 5.382v1.576 2.042h2v-2.042-1.576-16.382c0-.552.448-1 1-1s1 .448 1 1v10 4h2v-4c0-.552.448-1 1-1s1 .448 1 1v1 3h2v-3c0-.552.448-1 1-1s1 .448 1 1v1 2h2v-2c0-.552.448-1 1-1s1 .448 1 1zm0-33h-22v-1c0-.552.448-1 1-1h20c.552 0 1 .448 1 1zm-22 2h22v2h-22zm0 4h22v5c0 .552-.448 1-1 1h-9v-1c0-1.654-1.346-3-3-3s-3 1.346-3 3v1h-5c-.552 0-1-.448-1-1zm21 14c-.537 0-1.034.153-1.471.401-.532-.839-1.464-1.401-2.529-1.401-.537 0-1.034.153-1.471.401-.532-.839-1.464-1.401-2.529-1.401-.352 0-.686.072-1 .184v-4.184h9c1.654 0 3-1.346 3-3v-12c0-1.654-1.346-3-3-3h-20c-1.654 0-3 1.346-3 3v12c0 1.654 1.346 3 3 3h5v8.346c-1.348-1.44-3.259-2.346-5.382-2.346-1.443 0-2.618 1.175-2.618 2.618 0 .404.096.81.276 1.171l1.105 2.211h-3.381v-40h6.219l.433 1.729c.333 1.336 1.531 2.271 2.91 2.271h10.877c1.379 0 2.576-.935 2.91-2.272l.432-1.728h6.219v40h-2v-3c0-1.654-1.346-3-3-3zm9 11c0 1.654-1.346 3-3 3h-3.082c.049-.331.082-.665.082-1v-5h2c1.103 0 2-.897 2-2v-40c0-1.103-.897-2-2-2h-7.781l-.81 3.242c-.112.446-.511.758-.971.758h-10.876c-.46 0-.858-.312-.971-.757l-.81-3.243h-7.781c-1.103 0-2 .897-2 2v40c0 1.103.897 2 2 2h3.976c.011.138.024.277.024.416v4.584c0 .335.033.669.082 1h-5.082c-1.654 0-3-1.346-3-3v-46c0-1.654 1.346-3 3-3h32c1.654 0 3 1.346 3 3zm6-16v-2.145c1.155-.366 2-1.435 2-2.709 0-1.088-.604-2.065-1.578-2.553l-1.949-.975c-.292-.145-.473-.438-.473-.764 0-.47.384-.854.854-.854h.291c.471 0 .855.384.855.854v1.146h2v-1.146c0-1.275-.845-2.344-2-2.709v-2.145h-2v2.145c-1.155.366-2 1.435-2 2.709 0 1.088.604 2.065 1.578 2.553l1.949.975c.292.145.473.438.473.764 0 .47-.384.854-.854.854h-.291c-.471 0-.855-.384-.855-.854v-1.146h-2v-3.146-6.854h2c4.963 0 9 4.037 9 9s-4.037 9-9 9h-2v-6.854c0 1.275.845 2.344 2 2.709v2.145zm10 8.135 3.591 2.993c.26.216.409.534.409.872s-.149.656-.409.872l-3.591 2.993v-1.865h-14v-4h14zm-2-.135h-12v-4h12zm6-6h-9.695c2.834-1.992 4.695-5.28 4.695-9s-1.861-7.008-4.695-9h9.695zm-18-20v-4h12v4zm17.591-7.128-3.591 2.993v-1.865h-14v-4h14v-1.865l3.591 2.993c.26.216.409.534.409.872s-.149.656-.409.872zm-29.591 20.128h-2v-2h2zm-4 0h-2v-2h2zm-8-25c0 .552-.448 1-1 1s-1-.448-1-1 .448-1 1-1 1 .448 1 1zm2-1h6v2h-6z" fill="url(#SVGID_1_)"/></svg>